<?xml version="1.0" encoding="utf-8"?>
<!-- Generator: Adobe Illustrator 15.0.0, SVG Export Plug-In . SVG Version: 6.00 Build 0)  -->
<!DOCTYPE svg PUBLIC "-//W3C//DTD SVG 1.1//EN" "http://www.w3.org/Graphics/SVG/1.1/DTD/svg11.dtd">
<svg version="1.1" id="Layer_1" xmlns="http://www.w3.org/2000/svg" xmlns:xlink="http://www.w3.org/1999/xlink" x="0px" y="0px"
	 width="1440px" height="224px" viewBox="0 0 1440 224" enable-background="new 0 0 1440 224" xml:space="preserve">
<g>
	<g>
		<defs>
			<polygon id="SVGID_1_" points="0,223.957 0,0 719.937,0 1439.875,0 1439.875,223.957 719.937,223.957 			"/>
		</defs>
		<clipPath id="SVGID_2_">
			<use xlink:href="#SVGID_1_"  overflow="visible"/>
		</clipPath>
		
			<linearGradient id="SVGID_3_" gradientUnits="userSpaceOnUse" x1="299.5447" y1="-78.8286" x2="-420.1398" y2="-59.794" gradientTransform="matrix(1 0 0 -1 299.1001 135.4004)">
			<stop  offset="0" style="stop-color:#39D4CF"/>
			<stop  offset="0.7455" style="stop-color:#1AAAB8"/>
			<stop  offset="1" style="stop-color:#1A99B8"/>
		</linearGradient>
		<rect x="0" y="-0.045" clip-path="url(#SVGID_2_)" fill="url(#SVGID_3_)" width="719.938" height="415.922"/>
	</g>
	<g>
		<defs>
			<polygon id="SVGID_4_" points="0,224 0,0 720,0 1440,0 1440,224 720,224 			"/>
		</defs>
		<clipPath id="SVGID_5_">
			<use xlink:href="#SVGID_4_"  overflow="visible"/>
		</clipPath>
		
			<linearGradient id="SVGID_6_" gradientUnits="userSpaceOnUse" x1="19.3489" y1="-40.4014" x2="-488.0374" y2="-427.0915" gradientTransform="matrix(-1 0 0 -1 1022.0991 135.4004)">
			<stop  offset="0" style="stop-color:#39D4CF"/>
			<stop  offset="1" style="stop-color:#2BAAB8"/>
		</linearGradient>
		<rect x="650" clip-path="url(#SVGID_5_)" fill="url(#SVGID_6_)" width="790" height="416.002"/>
	</g>
	<g>
		<defs>
			<polygon id="SVGID_7_" points="0,223.957 0,0 719.937,0 1439.875,0 1439.875,223.957 719.937,223.957 			"/>
		</defs>
		<clipPath id="SVGID_8_">
			<use xlink:href="#SVGID_7_"  overflow="visible"/>
		</clipPath>
		<g opacity="0.12" clip-path="url(#SVGID_8_)">
			<path fill="#FFFFFF" d="M-5.752,328.73L-5.499-3.045h702.031l0.281,2.973c-129.201,24.756-312.705,112.44-443.897,181.64
				C110.72,256.57-2.333,326.608-3.459,327.308L-5.752,328.73z M-2.501-0.045l-0.247,323.388
				c16.763-10.311,123.136-75.263,254.264-144.43C378.085,112.154,553.31,28.204,681.822-0.045H-2.501z"/>
		</g>
	</g>
	<g>
		<defs>
			<polygon id="SVGID_9_" points="0,224 0,0 720,0 1440,0 1440,224 720,224 			"/>
		</defs>
		<clipPath id="SVGID_10_">
			<use xlink:href="#SVGID_9_"  overflow="visible"/>
		</clipPath>
		
			<path opacity="0.1" clip-path="url(#SVGID_10_)" fill="none" stroke="#FFFFFF" stroke-width="2" stroke-miterlimit="10" enable-background="new    " d="
			M370.857,416.707c0,0,609.221-383.752,741.214-415.752H1440v415.002L370.857,416.707z"/>
	</g>
	<g>
		<defs>
			<polygon id="SVGID_11_" points="0,224 0,0 720,0 1440,0 1440,224 720,224 			"/>
		</defs>
		<clipPath id="SVGID_12_">
			<use xlink:href="#SVGID_11_"  overflow="visible"/>
		</clipPath>
		<g opacity="0.05" clip-path="url(#SVGID_12_)">
			
				<linearGradient id="SVGID_13_" gradientUnits="userSpaceOnUse" x1="1021.8757" y1="4.1543" x2="865.4264" y2="-230.9832" gradientTransform="matrix(1 0 0 -1 299.1001 135.4004)">
				<stop  offset="0" style="stop-color:#000000"/>
				<stop  offset="1" style="stop-color:#1AAAB8;stop-opacity:0"/>
			</linearGradient>
			<path fill="url(#SVGID_13_)" d="M1321.812-0.045c0,0-424.229,321.372-497.727,416.002H1439V-0.045H1321.812z"/>
			<path fill="#FFFFFF" d="M1321.847,0.055c-43.045,32.784-85.823,65.916-128.421,99.276
				c-42.597,33.38-84.987,67.026-127.048,101.076c-42.05,34.063-83.805,68.497-124.812,103.804
				c-20.487,17.668-40.789,35.557-60.616,53.959c-9.904,9.207-19.691,18.541-29.213,28.139c-9.484,9.62-18.834,19.425-27.152,30.038
				l-0.5-1.021L1439,414.961l-0.995,0.996l0.027-104.001l0.167-104l0.333-208.001L1439,0.423L1321.847,0.055z M1321.777-0.146
				l116.988-0.367L1439-0.515v0.47l0.566,208.001l0.286,104L1440,415.957v0.999h-1H824.086h-1.303l0.803-1.204
				c8.396-10.684,17.774-20.58,27.293-30.205c9.55-9.604,19.359-18.981,29.285-28.183c19.866-18.389,40.201-36.279,60.719-53.928
				c41.062-35.271,82.897-69.627,125.007-103.624c42.126-33.979,84.579-67.555,127.235-100.861
				c42.666-33.293,85.515-66.358,128.627-99.074L1321.777-0.146z"/>
		</g>
	</g>
	<g>
		<defs>
			<polygon id="SVGID_14_" points="0,224 0,0 720,0 1440,0 1440,224 720,224 			"/>
		</defs>
		<clipPath id="SVGID_15_">
			<use xlink:href="#SVGID_14_"  overflow="visible"/>
		</clipPath>
		<g opacity="0.05" clip-path="url(#SVGID_15_)">
			<path fill="#FFFFFF" d="M1320.223-1.475c-22.681,17.162-45.228,34.502-67.742,51.878
				c-51.803,39.977-103.317,80.329-154.426,121.189c-56.722,45.348-113.06,91.233-167.91,138.834
				c-22.266,19.32-44.303,38.938-65.579,59.353c-14.838,14.233-29.717,28.968-42.347,45.246c-1.063,1.371,1.266,3.931,2.603,3.931
				c24.73,0,49.46,0,74.189,0c57.466,0,114.934,0,172.397,0c65.117,0,130.233,0,195.352,0c47.684,0,95.366,0,143.049,0
				c9.809,0,19.617,0,29.427,0c0.971,0,1.766-1.016,1.766-1.869c0-33.604,0-67.207,0-100.813c0-64.285,0-128.57,0-192.855
				c0-40.177,0-80.356,0-120.535c0-0.601,0-1.199,0-1.799c0-1.259-1.966-3.13-3.235-3.13c-38.896,0-77.792,0-116.688,0
				c-2.706,0-0.57,5,1.473,5c38.895,0,77.791,0,116.687,0c-0.917-1-2.235-2.19-3.235-3.129c0,33.604,0,67.208,0,100.812
				c0,64.284,0,128.569,0,192.855c0,40.179,0,80.356,0,120.534c0,0.6,0,1.2,0,1.8c1-0.52,1.339-0.869,1.766-1.87
				c-24.729,0-49.46,0-74.189,0c-57.466,0-114.933,0-172.398,0c-65.116,0-130.232,0-195.35,0c-47.685,0-95.366,0-143.05,0
				c-9.809,0-19.616,0-29.427,0c0.868,2.001,1.735,2.673,2.604,3.932c12.76-16.445,27.914-31.035,42.911-45.402
				c21.639-20.727,44.077-40.576,66.718-60.197c54.968-47.635,111.432-93.527,168.248-138.931
				c50.857-40.641,102.125-80.757,153.668-120.522c21.903-16.901,43.84-33.759,65.902-50.455
				C1325.156,1.051,1322.008-2.825,1320.223-1.475z"/>
		</g>
	</g>
	<g>
		<defs>
			<polygon id="SVGID_16_" points="0,224 0,0 720,0 1440,0 1440,224 720,224 			"/>
		</defs>
		<clipPath id="SVGID_17_">
			<use xlink:href="#SVGID_16_"  overflow="visible"/>
		</clipPath>
		<path opacity="0.05" clip-path="url(#SVGID_17_)" fill="#FFFFFF" enable-background="new    " d="M1439,113.955
			c0,0-319,228.001-338,244.001c0,0,296-144.001,339-158.001L1439,113.955z"/>
	</g>
	<g>
		<defs>
			<polygon id="SVGID_18_" points="0,224 0,0 720,0 1440,0 1440,224 720,224 			"/>
		</defs>
		<clipPath id="SVGID_19_">
			<use xlink:href="#SVGID_18_"  overflow="visible"/>
		</clipPath>
		
			<linearGradient id="SVGID_20_" gradientUnits="userSpaceOnUse" x1="946.155" y1="-263.3096" x2="1093.2474" y2="-191.3529" gradientTransform="matrix(1 0 0 -1 299.1001 135.4004)">
			<stop  offset="0" style="stop-color:#1AAAB8"/>
			<stop  offset="1" style="stop-color:#1A99B8"/>
		</linearGradient>
		
			<path opacity="0.15" clip-path="url(#SVGID_19_)" fill="url(#SVGID_20_)" stroke="#FFFFFF" stroke-miterlimit="10" enable-background="new    " d="
			M982.993,415.377c0,0,391.388-190.818,456.382-214.813v214.813H982.993z"/>
	</g>
	<g>
		<defs>
			<polygon id="SVGID_21_" points="0,224 0,0 720,0 1440,0 1440,224 720,224 			"/>
		</defs>
		<clipPath id="SVGID_22_">
			<use xlink:href="#SVGID_21_"  overflow="visible"/>
		</clipPath>
		
			<path opacity="0.1" clip-path="url(#SVGID_22_)" fill="none" stroke="#FFFFFF" stroke-miterlimit="10" enable-background="new    " d="
			M887.709,0.499c0,0-327.672,321.615-397.709,415.503h950V0L887.709,0.499z"/>
	</g>
	<g>
		<defs>
			<polygon id="SVGID_23_" points="0,224 0,0 720,0 1440,0 1440,224 720,224 			"/>
		</defs>
		<clipPath id="SVGID_24_">
			<use xlink:href="#SVGID_23_"  overflow="visible"/>
		</clipPath>
		
			<linearGradient id="SVGID_25_" gradientUnits="userSpaceOnUse" x1="349.9871" y1="-447.1509" x2="567.0106" y2="-305.5859" gradientTransform="matrix(1 0 0 -1 299.1001 135.4004)">
			<stop  offset="0" style="stop-color:#000000"/>
			<stop  offset="1" style="stop-color:#1AAAB8;stop-opacity:0"/>
		</linearGradient>
		
			<path opacity="0.03" clip-path="url(#SVGID_24_)" fill="url(#SVGID_25_)" stroke="#FFFFFF" stroke-width="2" stroke-miterlimit="10" enable-background="new    " d="
			M370.093,415.964c0,0,609.656-383.909,741.744-415.922H1440v415.172L370.093,415.964z"/>
	</g>
</g>
</svg>
