<?xml version="1.0" encoding="utf-8"?>
<!-- Generator: Adobe Illustrator 15.0.0, SVG Export Plug-In . SVG Version: 6.00 Build 0)  -->
<!DOCTYPE svg PUBLIC "-//W3C//DTD SVG 1.1//EN" "http://www.w3.org/Graphics/SVG/1.1/DTD/svg11.dtd">
<svg version="1.1" xmlns="http://www.w3.org/2000/svg" xmlns:xlink="http://www.w3.org/1999/xlink" x="0px" y="0px" width="48px"
	 height="239px" viewBox="0 0 48 239" enable-background="new 0 0 48 239" xml:space="preserve">
<g id="Layer_2">
</g>
<g id="Layer_1">
	<g>
		<g>
			<path fill="#FFFFFF" d="M24.003,45.313C12.146,45.313,2.5,35.708,2.5,23.902C2.5,12.095,12.146,2.49,24.003,2.49
				c11.856,0,21.503,9.605,21.503,21.412C45.506,35.708,35.859,45.313,24.003,45.313z"/>
		</g>
		<g>
			<path fill="#DFE2E3" d="M24.003,2.988c11.581,0,21.003,9.382,21.003,20.914c0,11.532-9.422,20.914-21.003,20.914
				S3,35.434,3,23.902C3,12.37,12.422,2.988,24.003,2.988 M24.003,1.992C11.851,1.992,2,11.801,2,23.902s9.851,21.91,22.003,21.91
				c12.151,0,22.003-9.809,22.003-21.91S36.154,1.992,24.003,1.992L24.003,1.992z"/>
		</g>
	</g>
	<g>
		<g>
			<path fill="#FFFFFF" d="M24.003,93.117C12.146,93.117,2.5,83.512,2.5,71.705s9.646-21.412,21.503-21.412
				c11.856,0,21.503,9.605,21.503,21.412S35.859,93.117,24.003,93.117z"/>
		</g>
		<g>
			<path fill="#DFE2E3" d="M24.003,50.791c11.581,0,21.003,9.382,21.003,20.914c0,11.532-9.422,20.914-21.003,20.914
				S3,83.237,3,71.705C3,60.173,12.422,50.791,24.003,50.791 M24.003,49.795C11.851,49.795,2,59.604,2,71.705
				s9.851,21.91,22.003,21.91c12.151,0,22.003-9.81,22.003-21.91S36.154,49.795,24.003,49.795L24.003,49.795z"/>
		</g>
	</g>
	<g>
		<g>
			<path fill="#FFFFFF" d="M24.003,139.925c-11.305,0-20.502-9.158-20.502-20.416c0-11.257,9.197-20.416,20.502-20.416
				c11.305,0,20.503,9.159,20.503,20.416C44.506,130.767,35.308,139.925,24.003,139.925z"/>
		</g>
		<g>
			<path fill="#1DDBD8" d="M24.003,100.586c10.478,0,19.002,8.489,19.002,18.922s-8.524,18.922-19.002,18.922
				C13.525,138.431,5,129.942,5,119.509S13.525,100.586,24.003,100.586 M24.003,97.599C11.851,97.599,2,107.408,2,119.509
				s9.851,21.91,22.003,21.91c12.151,0,22.003-9.81,22.003-21.91S36.154,97.599,24.003,97.599L24.003,97.599z"/>
		</g>
	</g>
	<g opacity="0.6">
		<g>
			<path fill="#FFFFFF" d="M24.003,188.725c-11.857,0-21.503-9.605-21.503-21.412S12.146,145.9,24.003,145.9
				c11.856,0,21.503,9.605,21.503,21.412S35.859,188.725,24.003,188.725z"/>
		</g>
		<g>
			<path fill="#DFE2E3" d="M24.003,146.398c11.581,0,21.003,9.382,21.003,20.914s-9.422,20.914-21.003,20.914S3,178.845,3,167.313
				S12.422,146.398,24.003,146.398 M24.003,145.402c-12.152,0-22.003,9.81-22.003,21.91s9.851,21.91,22.003,21.91
				c12.151,0,22.003-9.81,22.003-21.91S36.154,145.402,24.003,145.402L24.003,145.402z"/>
		</g>
	</g>
	<g opacity="0.6">
		<g>
			<path fill="#FFFFFF" d="M24.003,235.532c-11.305,0-20.502-9.159-20.502-20.417c0-11.257,9.197-20.416,20.502-20.416
				c11.305,0,20.503,9.159,20.503,20.416C44.506,226.373,35.308,235.532,24.003,235.532z"/>
		</g>
		<g>
			<g>
				<path fill="#1DDBD8" d="M24.003,196.193c10.478,0,19.002,8.488,19.002,18.922c0,10.435-8.524,18.923-19.002,18.923
					C13.525,234.038,5,225.55,5,215.115C5,204.682,13.525,196.193,24.003,196.193 M24.003,193.206
					C11.851,193.206,2,203.015,2,215.115c0,12.102,9.851,21.91,22.003,21.91c12.151,0,22.003-9.809,22.003-21.91
					C46.006,203.015,36.154,193.206,24.003,193.206L24.003,193.206z"/>
			</g>
		</g>
	</g>
	<g>
		<g>
			<g>
				<path fill="#9B9FAB" d="M36.724,25.415v-3.04l-3.379-0.523c-0.221-1.061-0.567-2.051-1.116-2.947l2.07-2.892l-2.143-2.149
					l-2.778,2.051c-0.905-0.587-1.913-1.018-2.998-1.267l-0.596-3.413h-3.053l-0.512,3.39c-1.088,0.239-2.102,0.666-3.012,1.244
					l-2.866-2.004l-2.159,2.149l2.087,2.812c-0.557,0.891-1.099,1.877-1.331,2.935l-3.657,0.615v3.04l3.701,0.534
					c0.244,1.015,0.714,1.963,1.258,2.82l-2.09,3.008l2.175,2.149l2.984-2.189c0.843,0.52,1.777,0.913,2.77,1.147l0.652,3.684h3.053
					l0.55-3.66c0.997-0.224,1.93-0.609,2.779-1.12l3.059,2.139l2.159-2.15l-2.172-2.926c0.553-0.851,0.84-1.798,1.094-2.81
					L36.724,25.415z M29.6,23.769c0,2.938-2.393,5.32-5.342,5.32c-2.951,0-5.343-2.382-5.343-5.32c0-2.938,2.392-5.32,5.343-5.32
					C27.207,18.449,29.6,20.831,29.6,23.769z"/>
			</g>
		</g>
		<g>
			<g>
				<path fill="#666666" d="M25.999,36.817h-3.478l-0.66-3.73c-0.892-0.227-1.744-0.58-2.539-1.051l-3.021,2.217l-2.475-2.446
					l2.116-3.046c-0.558-0.9-0.939-1.751-1.161-2.59l-3.749-0.541v-3.465l3.701-0.623c0.251-1.004,0.753-1.922,1.235-2.704
					l-2.115-2.849l2.459-2.449l2.902,2.03c0.866-0.529,1.8-0.916,2.783-1.15l0.518-3.435h3.479l0.604,3.458
					c0.984,0.245,1.915,0.637,2.769,1.169l2.814-2.077l2.443,2.451l-2.098,2.93c0.458,0.786,0.795,1.677,1.026,2.715l3.42,0.53v3.46
					l-3.518,0.636c-0.255,0.99-0.531,1.821-0.994,2.581l2.198,2.963l-2.46,2.449l-3.099-2.166c-0.805,0.466-1.659,0.811-2.545,1.027
					L25.999,36.817z M22.941,36.319h2.627l0.544-3.616l0.167-0.038c0.945-0.212,1.854-0.579,2.704-1.089l0.14-0.084l3.021,2.112
					l1.858-1.851l-2.146-2.893l0.094-0.145c0.508-0.781,0.791-1.658,1.061-2.734l0.039-0.156l3.425-0.619v-2.618l-3.338-0.518
					l-0.035-0.169c-0.233-1.118-0.588-2.056-1.085-2.868l-0.086-0.14l2.043-2.854l-1.841-1.848l-2.744,2.026l-0.146-0.094
					c-0.891-0.578-1.872-0.993-2.917-1.233l-0.162-0.037l-0.589-3.37h-2.626l-0.505,3.347l-0.167,0.037
					c-1.041,0.229-2.028,0.636-2.932,1.21l-0.141,0.09l-2.831-1.979l-1.858,1.85l2.06,2.775l-0.09,0.144
					c-0.512,0.819-1.067,1.798-1.299,2.856l-0.036,0.164l-3.615,0.608V25.2l3.654,0.527l0.04,0.165
					c0.211,0.881,0.613,1.779,1.226,2.744l0.089,0.139l-2.065,2.973L16.35,33.6l2.948-2.163l0.144,0.088
					c0.836,0.516,1.744,0.892,2.696,1.117l0.16,0.038L22.941,36.319z M24.257,29.338c-3.084,0-5.593-2.499-5.593-5.569
					c0-3.071,2.509-5.569,5.593-5.569c3.083,0,5.592,2.498,5.592,5.569C29.85,26.839,27.341,29.338,24.257,29.338z M24.257,18.698
					c-2.808,0-5.093,2.275-5.093,5.071c0,2.796,2.285,5.071,5.093,5.071s5.092-2.275,5.092-5.071
					C29.35,20.973,27.065,18.698,24.257,18.698z"/>
			</g>
		</g>
	</g>
	<g>
		<g>
			<g>
				<path fill="#9B9FAB" d="M36.724,121.022v-3.04l-3.379-0.524c-0.221-1.061-0.567-2.051-1.116-2.947l2.07-2.891l-2.143-2.149
					l-2.778,2.051c-0.905-0.588-1.913-1.018-2.998-1.268l-0.596-3.413h-3.053l-0.512,3.39c-1.088,0.239-2.102,0.666-3.012,1.244
					l-2.866-2.004l-2.159,2.149l2.087,2.812c-0.557,0.891-1.099,1.877-1.331,2.935l-3.657,0.616v3.04l3.701,0.534
					c0.244,1.014,0.714,1.963,1.258,2.819l-2.09,3.009l2.175,2.149l2.984-2.19c0.843,0.521,1.777,0.913,2.77,1.147l0.652,3.685
					h3.053l0.55-3.66c0.997-0.224,1.93-0.608,2.779-1.119l3.059,2.139l2.159-2.15l-2.172-2.926c0.553-0.852,0.84-1.798,1.094-2.81
					L36.724,121.022z M29.6,119.376c0,2.938-2.393,5.32-5.342,5.32c-2.951,0-5.343-2.383-5.343-5.32c0-2.938,2.392-5.32,5.343-5.32
					C27.207,114.056,29.6,116.438,29.6,119.376z"/>
			</g>
		</g>
		<g>
			<g>
				<path fill="#666666" d="M25.999,132.425h-3.478l-0.66-3.73c-0.892-0.227-1.744-0.58-2.539-1.051l-3.021,2.217l-2.475-2.446
					l2.116-3.045c-0.558-0.9-0.939-1.751-1.161-2.59l-3.749-0.541v-3.466l3.701-0.623c0.251-1.004,0.753-1.922,1.235-2.704
					l-2.115-2.849l2.459-2.449l2.902,2.03c0.866-0.529,1.8-0.916,2.783-1.15l0.518-3.435h3.479l0.604,3.458
					c0.984,0.245,1.915,0.637,2.769,1.169l2.814-2.077l2.443,2.451l-2.098,2.931c0.458,0.786,0.795,1.677,1.026,2.715l3.42,0.53
					v3.46l-3.518,0.636c-0.255,0.99-0.531,1.821-0.994,2.582l2.198,2.962l-2.46,2.449l-3.099-2.166
					c-0.805,0.466-1.659,0.812-2.545,1.027L25.999,132.425z M22.941,131.927h2.627l0.544-3.616l0.167-0.037
					c0.945-0.213,1.854-0.58,2.704-1.09l0.14-0.085l3.021,2.112l1.858-1.851l-2.146-2.893l0.094-0.145
					c0.508-0.781,0.791-1.658,1.061-2.734l0.039-0.156l3.425-0.618v-2.619l-3.338-0.517l-0.035-0.169
					c-0.233-1.118-0.588-2.057-1.085-2.868l-0.086-0.141l2.043-2.854l-1.841-1.847l-2.744,2.025l-0.146-0.094
					c-0.891-0.578-1.872-0.993-2.917-1.233l-0.162-0.037l-0.589-3.37h-2.626l-0.505,3.347l-0.167,0.037
					c-1.041,0.229-2.028,0.636-2.932,1.21l-0.141,0.09l-2.831-1.979l-1.858,1.85l2.06,2.775l-0.09,0.144
					c-0.512,0.819-1.067,1.798-1.299,2.856l-0.036,0.164l-3.615,0.608v2.614l3.654,0.527l0.04,0.165
					c0.211,0.881,0.613,1.779,1.226,2.743l0.089,0.14l-2.065,2.973l1.874,1.853l2.948-2.163l0.144,0.089
					c0.836,0.516,1.744,0.892,2.696,1.116l0.16,0.038L22.941,131.927z M24.257,124.945c-3.084,0-5.593-2.498-5.593-5.569
					c0-3.071,2.509-5.569,5.593-5.569c3.083,0,5.592,2.498,5.592,5.569C29.85,122.447,27.341,124.945,24.257,124.945z
					 M24.257,114.305c-2.808,0-5.093,2.274-5.093,5.071c0,2.796,2.285,5.071,5.093,5.071s5.092-2.275,5.092-5.071
					C29.35,116.58,27.065,114.305,24.257,114.305z"/>
			</g>
		</g>
	</g>
	<g opacity="0.5">
		<g>
			<g>
				<path fill="#9B9FAB" d="M36.724,168.825v-3.039l-3.379-0.523c-0.221-1.062-0.567-2.051-1.116-2.947l2.07-2.892l-2.143-2.149
					l-2.778,2.051c-0.905-0.587-1.913-1.017-2.998-1.267l-0.596-3.413h-3.053l-0.512,3.39c-1.088,0.24-2.102,0.666-3.012,1.244
					l-2.866-2.004l-2.159,2.149l2.087,2.812c-0.557,0.891-1.099,1.877-1.331,2.935l-3.657,0.615v3.04l3.701,0.534
					c0.244,1.014,0.714,1.963,1.258,2.819l-2.09,3.009l2.175,2.149l2.984-2.19c0.843,0.521,1.777,0.913,2.77,1.147l0.652,3.684
					h3.053l0.55-3.659c0.997-0.224,1.93-0.609,2.779-1.12l3.059,2.139l2.159-2.149l-2.172-2.927c0.553-0.851,0.84-1.798,1.094-2.809
					L36.724,168.825z M29.6,167.18c0,2.938-2.393,5.319-5.342,5.319c-2.951,0-5.343-2.382-5.343-5.319
					c0-2.938,2.392-5.32,5.343-5.32C27.207,161.859,29.6,164.241,29.6,167.18z"/>
			</g>
		</g>
		<g>
			<g>
				<path fill="#666666" d="M25.999,180.228h-3.478l-0.66-3.729c-0.892-0.227-1.744-0.58-2.539-1.051l-3.021,2.217l-2.475-2.446
					l2.116-3.045c-0.558-0.9-0.939-1.751-1.161-2.59l-3.749-0.542v-3.465l3.701-0.623c0.251-1.004,0.753-1.922,1.235-2.704
					l-2.115-2.849l2.459-2.449l2.902,2.029c0.865-0.528,1.799-0.914,2.783-1.149l0.518-3.435h3.479l0.604,3.458
					c0.985,0.244,1.916,0.638,2.769,1.169l2.814-2.077l2.443,2.451l-2.098,2.93c0.458,0.786,0.795,1.678,1.026,2.716l3.42,0.53v3.46
					l-3.518,0.636c-0.255,0.99-0.531,1.821-0.994,2.581l2.198,2.963l-2.46,2.449l-3.099-2.166c-0.805,0.466-1.659,0.811-2.545,1.026
					L25.999,180.228z M22.941,179.729h2.627l0.544-3.615l0.167-0.038c0.945-0.212,1.854-0.579,2.704-1.09l0.14-0.084l3.021,2.112
					l1.858-1.851l-2.146-2.893l0.094-0.145c0.508-0.781,0.791-1.658,1.061-2.734l0.039-0.156l3.425-0.618v-2.619l-3.338-0.518
					l-0.035-0.168c-0.233-1.118-0.588-2.057-1.085-2.869l-0.086-0.14l2.043-2.854l-1.841-1.847l-2.744,2.025l-0.146-0.095
					c-0.89-0.577-1.871-0.992-2.917-1.233l-0.162-0.037l-0.589-3.369h-2.626l-0.505,3.347l-0.167,0.037
					c-1.042,0.229-2.029,0.638-2.932,1.211l-0.141,0.09L16.37,157.6l-1.858,1.85l2.06,2.775l-0.09,0.144
					c-0.512,0.819-1.067,1.799-1.299,2.855l-0.036,0.164l-3.615,0.609v2.613l3.654,0.527l0.04,0.164
					c0.211,0.882,0.613,1.779,1.226,2.744l0.089,0.14l-2.065,2.973l1.874,1.853l2.948-2.163l0.144,0.089
					c0.836,0.516,1.744,0.891,2.696,1.116l0.16,0.038L22.941,179.729z M24.257,172.748c-3.084,0-5.593-2.498-5.593-5.568
					c0-3.071,2.509-5.569,5.593-5.569c3.083,0,5.592,2.498,5.592,5.569C29.85,170.25,27.341,172.748,24.257,172.748z
					 M24.257,162.108c-2.808,0-5.093,2.275-5.093,5.071s2.285,5.07,5.093,5.07s5.092-2.274,5.092-5.07
					S27.065,162.108,24.257,162.108z"/>
			</g>
		</g>
	</g>
	<g opacity="0.5">
		<g>
			<g>
				<path fill="#9B9FAB" d="M36.724,216.629v-3.039l-3.379-0.523c-0.221-1.062-0.567-2.051-1.116-2.947l2.07-2.892l-2.143-2.149
					l-2.778,2.051c-0.905-0.587-1.913-1.018-2.998-1.268l-0.596-3.412h-3.053l-0.512,3.39c-1.088,0.24-2.102,0.666-3.012,1.244
					l-2.866-2.004l-2.159,2.149l2.087,2.812c-0.557,0.891-1.099,1.877-1.331,2.935l-3.657,0.615v3.04l3.701,0.533
					c0.244,1.015,0.714,1.964,1.258,2.82l-2.09,3.008l2.175,2.149l2.984-2.189c0.843,0.52,1.777,0.913,2.77,1.147l0.652,3.684h3.053
					l0.55-3.659c0.997-0.224,1.93-0.609,2.779-1.12l3.059,2.139l2.159-2.149l-2.172-2.927c0.553-0.851,0.84-1.798,1.094-2.81
					L36.724,216.629z M29.6,214.983c0,2.938-2.393,5.319-5.342,5.319c-2.951,0-5.343-2.382-5.343-5.319
					c0-2.938,2.392-5.32,5.343-5.32C27.207,209.663,29.6,212.045,29.6,214.983z"/>
			</g>
		</g>
		<g>
			<g>
				<path fill="#666666" d="M25.999,228.031h-3.478l-0.66-3.73c-0.892-0.227-1.744-0.579-2.539-1.05l-3.021,2.217l-2.475-2.446
					l2.116-3.045c-0.558-0.901-0.939-1.752-1.161-2.591l-3.749-0.541v-3.466l3.701-0.623c0.251-1.003,0.753-1.921,1.235-2.703
					l-2.115-2.849l2.459-2.449l2.902,2.029c0.865-0.528,1.799-0.915,2.783-1.15l0.518-3.434h3.479l0.604,3.458
					c0.985,0.244,1.916,0.638,2.769,1.169l2.814-2.077l2.443,2.451l-2.098,2.93c0.458,0.786,0.795,1.678,1.026,2.716l3.42,0.53v3.46
					l-3.518,0.636c-0.255,0.99-0.531,1.821-0.994,2.581l2.198,2.963l-2.46,2.449l-3.099-2.166c-0.805,0.466-1.659,0.811-2.545,1.026
					L25.999,228.031z M22.941,227.533h2.627l0.544-3.616l0.167-0.037c0.945-0.212,1.854-0.579,2.704-1.09l0.14-0.084l3.021,2.112
					l1.858-1.851l-2.146-2.893l0.094-0.145c0.508-0.781,0.791-1.658,1.061-2.734l0.039-0.156l3.425-0.618v-2.619l-3.338-0.518
					l-0.035-0.169c-0.233-1.117-0.588-2.056-1.085-2.868l-0.086-0.14l2.043-2.854l-1.841-1.848l-2.744,2.025l-0.146-0.094
					c-0.89-0.577-1.871-0.992-2.917-1.233l-0.162-0.037l-0.589-3.369h-2.626l-0.505,3.347l-0.167,0.037
					c-1.042,0.229-2.029,0.637-2.932,1.211l-0.141,0.09l-2.831-1.98l-1.858,1.851l2.06,2.774l-0.09,0.145
					c-0.512,0.818-1.067,1.799-1.299,2.855l-0.036,0.164l-3.615,0.609v2.613l3.654,0.527l0.04,0.164
					c0.211,0.882,0.613,1.779,1.226,2.744l0.089,0.139l-2.065,2.974l1.874,1.853l2.948-2.164l0.144,0.089
					c0.836,0.517,1.744,0.892,2.696,1.117l0.16,0.038L22.941,227.533z M24.257,220.552c-3.084,0-5.593-2.498-5.593-5.568
					c0-3.071,2.509-5.569,5.593-5.569c3.083,0,5.592,2.498,5.592,5.569C29.85,218.054,27.341,220.552,24.257,220.552z
					 M24.257,209.912c-2.808,0-5.093,2.274-5.093,5.071c0,2.796,2.285,5.07,5.093,5.07s5.092-2.274,5.092-5.07
					C29.35,212.187,27.065,209.912,24.257,209.912z"/>
			</g>
		</g>
	</g>
	<g opacity="0.2">
		<g>
			<ellipse cx="24.003" cy="71.705" rx="22.003" ry="21.91"/>
		</g>
	</g>
	<g>
		<g>
			<g>
				<path fill="#9B9FAB" d="M36.724,73.218v-3.039l-3.379-0.524c-0.221-1.061-0.567-2.05-1.116-2.947l2.07-2.892l-2.143-2.149
					l-2.778,2.051c-0.905-0.587-1.913-1.018-2.998-1.267l-0.596-3.413h-3.053l-0.512,3.39c-1.088,0.24-2.102,0.666-3.012,1.244
					l-2.866-2.004l-2.159,2.149l2.087,2.812c-0.557,0.891-1.099,1.877-1.331,2.935l-3.657,0.615v3.04l3.701,0.534
					c0.244,1.014,0.714,1.963,1.258,2.819l-2.09,3.009l2.175,2.149l2.984-2.19c0.843,0.52,1.777,0.913,2.77,1.147l0.652,3.684h3.053
					l0.55-3.66c0.997-0.224,1.93-0.609,2.779-1.119l3.059,2.139l2.159-2.15l-2.172-2.926c0.553-0.851,0.84-1.798,1.094-2.81
					L36.724,73.218z M29.6,71.572c0,2.938-2.393,5.32-5.342,5.32c-2.951,0-5.343-2.382-5.343-5.32s2.392-5.32,5.343-5.32
					C27.207,66.252,29.6,68.634,29.6,71.572z"/>
			</g>
		</g>
		<g>
			<g>
				<path fill="#666666" d="M25.999,84.621h-3.478l-0.66-3.73c-0.892-0.227-1.744-0.58-2.539-1.051l-3.021,2.218l-2.475-2.447
					l2.116-3.045c-0.558-0.9-0.939-1.751-1.161-2.59l-3.749-0.541v-3.466l3.701-0.623c0.251-1.004,0.753-1.921,1.235-2.704
					l-2.115-2.848l2.459-2.449l2.902,2.029c0.866-0.529,1.8-0.916,2.783-1.15l0.518-3.434h3.479l0.604,3.458
					c0.984,0.244,1.915,0.637,2.769,1.169l2.814-2.077l2.443,2.451l-2.098,2.93c0.458,0.786,0.795,1.677,1.026,2.715l3.42,0.53v3.46
					l-3.518,0.636c-0.255,0.99-0.531,1.822-0.994,2.582l2.198,2.962l-2.46,2.449l-3.099-2.167c-0.805,0.466-1.659,0.811-2.545,1.027
					L25.999,84.621z M22.941,84.123h2.627l0.544-3.616l0.167-0.038c0.945-0.212,1.854-0.579,2.704-1.089l0.14-0.084l3.021,2.112
					l1.858-1.85l-2.146-2.893l0.094-0.145c0.508-0.781,0.791-1.658,1.061-2.734l0.039-0.156l3.425-0.619v-2.618l-3.338-0.518
					l-0.035-0.169c-0.233-1.118-0.588-2.056-1.085-2.868l-0.086-0.14l2.043-2.854l-1.841-1.847l-2.744,2.026l-0.146-0.095
					c-0.891-0.578-1.872-0.993-2.917-1.233l-0.162-0.038l-0.589-3.369h-2.626l-0.505,3.347l-0.167,0.037
					c-1.041,0.229-2.028,0.636-2.932,1.21l-0.141,0.09l-2.831-1.979l-1.858,1.85l2.06,2.775l-0.09,0.144
					c-0.512,0.819-1.067,1.798-1.299,2.856l-0.036,0.164l-3.615,0.608v2.614l3.654,0.527l0.04,0.164
					c0.211,0.882,0.613,1.779,1.226,2.744l0.089,0.14l-2.065,2.973l1.874,1.852l2.948-2.163l0.144,0.089
					c0.836,0.516,1.744,0.891,2.696,1.117l0.16,0.038L22.941,84.123z M24.257,77.141c-3.084,0-5.593-2.498-5.593-5.569
					c0-3.07,2.509-5.569,5.593-5.569c3.083,0,5.592,2.499,5.592,5.569C29.85,74.643,27.341,77.141,24.257,77.141z M24.257,66.501
					c-2.808,0-5.093,2.275-5.093,5.071c0,2.796,2.285,5.071,5.093,5.071s5.092-2.275,5.092-5.071
					C29.35,68.776,27.065,66.501,24.257,66.501z"/>
			</g>
		</g>
	</g>
</g>
</svg>
