<?xml version="1.0" encoding="utf-8"?>
<!-- Generator: Adobe Illustrator 15.0.0, SVG Export Plug-In . SVG Version: 6.00 Build 0)  -->
<!DOCTYPE svg PUBLIC "-//W3C//DTD SVG 1.1//EN" "http://www.w3.org/Graphics/SVG/1.1/DTD/svg11.dtd">
<svg version="1.1" id="Layer_1" xmlns="http://www.w3.org/2000/svg" xmlns:xlink="http://www.w3.org/1999/xlink" x="0px" y="0px"
	 width="32px" height="160px" viewBox="0 0 32 160" enable-background="new 0 0 32 160" xml:space="preserve">
<g>
	<rect x="5.5" y="69.5" fill="#1DDBD9" width="21" height="21"/>
	<path fill-rule="evenodd" clip-rule="evenodd" fill="#FFFFFF" d="M24.465,75.493L13.468,86.49l-5.933-5.934l1.983-1.982l3.95,3.949
		l9.014-9.014L24.465,75.493z"/>
	<circle opacity="0.1" fill-rule="evenodd" clip-rule="evenodd" cx="16" cy="80" r="16"/>
</g>
<g>
	<rect x="5.5" y="101.5" fill="#1DDBD9" width="21" height="21"/>
	<path fill-rule="evenodd" clip-rule="evenodd" fill="#FFFFFF" d="M24.465,107.492L13.468,118.49l-5.933-5.934l1.983-1.982
		l3.95,3.949l9.014-9.014L24.465,107.492z"/>
	<circle opacity="0.1" fill-rule="evenodd" clip-rule="evenodd" cx="16" cy="112" r="16"/>
</g>
<g>
	<g opacity="0.2">
		<rect x="5.5" y="133.5" fill="#1DDBD9" width="21" height="21"/>
		<path fill-rule="evenodd" clip-rule="evenodd" fill="#FFFFFF" d="M24.465,139.492L13.468,150.49l-5.933-5.934l1.983-1.982
			l3.95,3.949l9.014-9.014L24.465,139.492z"/>
	</g>
	<circle opacity="0.1" fill-rule="evenodd" clip-rule="evenodd" cx="16" cy="144" r="16"/>
</g>
<g>
	<rect x="5.5" y="5.5" fill="#1DDBD9" width="21" height="21"/>
	<path fill-rule="evenodd" clip-rule="evenodd" fill="#FFFFFF" d="M24.465,11.493L13.468,22.49l-5.933-5.934l1.983-1.983l3.95,3.95
		l9.014-9.014L24.465,11.493z"/>
</g>
<g opacity="0.2">
	<rect x="5.5" y="37.5" fill="#1DDBD9" width="21" height="21"/>
	<path fill-rule="evenodd" clip-rule="evenodd" fill="#FFFFFF" d="M24.465,43.493L13.468,54.49l-5.933-5.934l1.983-1.983l3.95,3.95
		l9.014-9.014L24.465,43.493z"/>
</g>
</svg>
