<?xml version="1.0" encoding="utf-8"?>
<!-- Generator: Adobe Illustrator 15.0.0, SVG Export Plug-In . SVG Version: 6.00 Build 0)  -->
<!DOCTYPE svg PUBLIC "-//W3C//DTD SVG 1.1//EN" "http://www.w3.org/Graphics/SVG/1.1/DTD/svg11.dtd">
<svg version="1.1" id="Layer_1" xmlns="http://www.w3.org/2000/svg" xmlns:xlink="http://www.w3.org/1999/xlink" x="0px" y="0px"
	 width="56px" height="56px" viewBox="0 0 56 56" enable-background="new 0 0 56 56" xml:space="preserve">
<path fill-rule="evenodd" clip-rule="evenodd" fill="#FFFFFF" d="M37.665,26c-0.581,0-10.749,0-15.606,0
	c1.948-2,4.335-4.298,4.657-4.616c0.528-0.521,0.497-1.421-0.068-1.98s-1.452-0.601-1.979-0.079
	c-0.528,0.521-6.636,6.499-7.201,7.058c-0.289,0.285-0.426,0.657-0.42,1.031c-0.006,0.374,0.131,0.747,0.42,1.032
	c0.565,0.559,6.673,6.542,7.201,7.063c0.527,0.522,1.414,0.49,1.979-0.068s0.596-1.393,0.068-1.914
	C26.394,33.209,24.006,31,22.058,29c4.858,0,15.026,0,15.607,0c0.746,0,1.352-0.634,1.352-1.424S38.411,26,37.665,26z"/>
</svg>
