<?xml version="1.0" encoding="utf-8"?>
<!-- Generator: Adobe Illustrator 15.0.0, SVG Export Plug-In . SVG Version: 6.00 Build 0)  -->
<!DOCTYPE svg PUBLIC "-//W3C//DTD SVG 1.1//EN" "http://www.w3.org/Graphics/SVG/1.1/DTD/svg11.dtd">
<svg version="1.1" id="Layer_1" xmlns="http://www.w3.org/2000/svg" xmlns:xlink="http://www.w3.org/1999/xlink" x="0px" y="0px"
	 width="24px" height="24px" viewBox="0 0 24 24" enable-background="new 0 0 24 24" xml:space="preserve">
<path opacity="0.2" enable-background="new    " d="M12,4c-4.418,0-8,3.582-8,8c0,4.419,3.582,8,8,8c4.419,0,8-3.581,8-8
	C20,7.582,16.419,4,12,4z M12,18c-3.314,0-6-2.688-6-6c0-3.313,2.686-6,6-6c3.313,0,6,2.687,6,6C18,15.313,15.313,18,12,18z"/>
<path fill="#1DDBD8" d="M12,4c-1.895,0-3.634,0.663-5.004,1.764l0.003,0.004C6.8,5.951,6.67,6.208,6.67,6.5c0,0.552,0.448,1,1,1
	c0.214,0,0.403-0.083,0.565-0.198L8.25,7.32C9.277,6.496,10.58,6,12,6c3.313,0,6,2.687,6,6c0,3.313-2.688,6-6,6
	c-0.208,0-0.412-0.011-0.614-0.031l-0.002,0.018c-0.029-0.002-0.054-0.017-0.084-0.017c-0.553,0-1,0.447-1,1
	c0,0.511,0.388,0.916,0.883,0.977l-0.001,0.013c0.028,0.003,0.058,0.002,0.086,0.004c0.011,0.001,0.021,0.007,0.032,0.007
	c0.007,0,0.012-0.004,0.019-0.004C11.544,19.984,11.77,20,12,20c4.419,0,8-3.581,8-8C20,7.582,16.419,4,12,4z"/>
</svg>
