<?xml version="1.0" encoding="utf-8"?>
<!-- Generator: Adobe Illustrator 15.0.0, SVG Export Plug-In . SVG Version: 6.00 Build 0)  -->
<!DOCTYPE svg PUBLIC "-//W3C//DTD SVG 1.1//EN" "http://www.w3.org/Graphics/SVG/1.1/DTD/svg11.dtd">
<svg version="1.1" id="Layer_1" xmlns="http://www.w3.org/2000/svg" xmlns:xlink="http://www.w3.org/1999/xlink" x="0px" y="0px"
	 width="34px" height="136px" viewBox="0 0 34 136" enable-background="new 0 0 34 136" xml:space="preserve">
<circle fill="#FFFFFF" cx="17" cy="17" r="16"/>
<g opacity="0.87">
	<path d="M11.442,13.347c0.478,0,0.918,0.086,1.322,0.256c0.404,0.17,0.752,0.412,1.042,0.724c0.291,0.312,0.519,0.697,0.683,1.156
		c0.164,0.46,0.246,0.966,0.246,1.518c0,0.532-0.08,1.025-0.239,1.478c-0.158,0.453-0.381,0.84-0.667,1.16
		c-0.286,0.319-0.633,0.568-1.042,0.747c-0.409,0.179-0.857,0.269-1.345,0.269c-0.649,0-1.225-0.154-1.725-0.463
		s-0.886-0.74-1.159-1.293C8.286,18.343,8.15,17.711,8.15,17s0.136-1.344,0.408-1.897c0.273-0.554,0.659-0.984,1.159-1.293
		S10.793,13.347,11.442,13.347z M9.538,17c0,0.747,0.175,1.35,0.523,1.81c0.349,0.459,0.81,0.689,1.381,0.689
		c0.571,0,1.032-0.23,1.381-0.689c0.349-0.46,0.523-1.063,0.523-1.81s-0.175-1.351-0.523-1.81c-0.348-0.459-0.81-0.689-1.381-0.689
		c-0.571,0-1.032,0.23-1.381,0.689S9.538,16.253,9.538,17z"/>
	<path d="M15.758,20.497v-6.994h4.607v1.154h-3.258V16.4h2.913v1.155h-2.913v2.941L15.758,20.497L15.758,20.497z"/>
	<path d="M21.242,20.497v-6.994h4.607v1.154h-3.259V16.4h2.912v1.155h-2.912v2.941L21.242,20.497L21.242,20.497z"/>
</g>
<g>
	<path fill="#FFFFFF" d="M17,65.5C9.005,65.5,2.5,58.995,2.5,51S9.005,36.5,17,36.5S31.5,43.005,31.5,51S24.995,65.5,17,65.5z"/>
	<path fill="#1DDBD8" d="M17,38c7.168,0,13,5.832,13,13s-5.832,13-13,13S4,58.168,4,51S9.832,38,17,38 M17,35
		C8.163,35,1,42.163,1,51c0,8.836,7.163,16,16,16s16-7.164,16-16C33,42.163,25.837,35,17,35L17,35z"/>
</g>
<g opacity="0.87">
	<path d="M11.442,47.347c0.478,0,0.918,0.086,1.322,0.256c0.404,0.17,0.752,0.412,1.042,0.724c0.291,0.312,0.519,0.697,0.683,1.156
		c0.164,0.46,0.246,0.966,0.246,1.518c0,0.532-0.08,1.025-0.239,1.478c-0.158,0.453-0.381,0.84-0.667,1.16
		c-0.286,0.319-0.633,0.568-1.042,0.747c-0.409,0.179-0.857,0.269-1.345,0.269c-0.649,0-1.225-0.154-1.725-0.463
		s-0.886-0.74-1.159-1.293C8.286,52.343,8.15,51.711,8.15,51s0.136-1.344,0.408-1.897c0.273-0.554,0.659-0.984,1.159-1.293
		S10.793,47.347,11.442,47.347z M9.538,51c0,0.747,0.175,1.35,0.523,1.81c0.349,0.459,0.81,0.689,1.381,0.689
		c0.571,0,1.032-0.23,1.381-0.689c0.349-0.46,0.523-1.063,0.523-1.81s-0.175-1.351-0.523-1.81c-0.348-0.459-0.81-0.689-1.381-0.689
		c-0.571,0-1.032,0.23-1.381,0.689S9.538,50.253,9.538,51z"/>
	<path d="M15.758,54.497v-6.994h4.607v1.154h-3.258V50.4h2.913v1.155h-2.913v2.941L15.758,54.497L15.758,54.497z"/>
	<path d="M21.242,54.497v-6.994h4.607v1.154h-3.259V50.4h2.912v1.155h-2.912v2.941L21.242,54.497L21.242,54.497z"/>
</g>
<circle opacity="0.6" fill="#FFFFFF" cx="17" cy="85" r="16"/>
<g opacity="0.6">
	<path d="M11.442,81.348c0.478,0,0.918,0.086,1.322,0.256c0.404,0.17,0.752,0.412,1.042,0.724c0.291,0.312,0.519,0.696,0.683,1.155
		c0.164,0.461,0.246,0.967,0.246,1.519c0,0.532-0.08,1.024-0.239,1.478c-0.158,0.453-0.381,0.84-0.667,1.16
		c-0.286,0.319-0.633,0.568-1.042,0.747c-0.409,0.179-0.857,0.269-1.345,0.269c-0.649,0-1.225-0.153-1.725-0.463
		c-0.5-0.309-0.886-0.739-1.159-1.293C8.286,86.343,8.15,85.711,8.15,85s0.136-1.344,0.408-1.896
		c0.273-0.555,0.659-0.984,1.159-1.293C10.217,81.501,10.793,81.348,11.442,81.348z M9.538,85c0,0.747,0.175,1.35,0.523,1.811
		c0.349,0.459,0.81,0.688,1.381,0.688c0.571,0,1.032-0.229,1.381-0.688c0.349-0.461,0.523-1.063,0.523-1.811
		s-0.175-1.352-0.523-1.811c-0.348-0.459-0.81-0.688-1.381-0.688c-0.571,0-1.032,0.229-1.381,0.688S9.538,84.253,9.538,85z"/>
	<path d="M15.758,88.497v-6.994h4.607v1.154h-3.258V84.4h2.913v1.154h-2.913v2.941L15.758,88.497L15.758,88.497z"/>
	<path d="M21.242,88.497v-6.994h4.607v1.154h-3.259V84.4h2.912v1.154h-2.912v2.941L21.242,88.497L21.242,88.497z"/>
</g>
<circle fill="#FFFFFF" cx="17" cy="119" r="16"/>
<g opacity="0.87">
	<path d="M11.442,115.348c0.478,0,0.918,0.086,1.322,0.256c0.404,0.17,0.752,0.412,1.042,0.724c0.291,0.312,0.519,0.696,0.683,1.155
		c0.164,0.461,0.246,0.967,0.246,1.519c0,0.532-0.08,1.024-0.239,1.478c-0.158,0.453-0.381,0.84-0.667,1.16
		c-0.286,0.319-0.633,0.568-1.042,0.747c-0.409,0.179-0.857,0.269-1.345,0.269c-0.649,0-1.225-0.153-1.725-0.463
		c-0.5-0.309-0.886-0.739-1.159-1.293C8.286,120.343,8.15,119.711,8.15,119s0.136-1.344,0.408-1.896
		c0.273-0.555,0.659-0.984,1.159-1.293C10.217,115.501,10.793,115.348,11.442,115.348z M9.538,119c0,0.747,0.175,1.35,0.523,1.811
		c0.349,0.459,0.81,0.688,1.381,0.688c0.571,0,1.032-0.229,1.381-0.688c0.349-0.461,0.523-1.063,0.523-1.811
		s-0.175-1.352-0.523-1.811c-0.348-0.459-0.81-0.688-1.381-0.688c-0.571,0-1.032,0.229-1.381,0.688S9.538,118.253,9.538,119z"/>
	<path d="M15.758,122.497v-6.994h4.607v1.154h-3.258v1.743h2.913v1.154h-2.913v2.941L15.758,122.497L15.758,122.497z"/>
	<path d="M21.242,122.497v-6.994h4.607v1.154h-3.259v1.743h2.912v1.154h-2.912v2.941L21.242,122.497L21.242,122.497z"/>
</g>
<circle opacity="0.3" enable-background="new    " cx="17" cy="119" r="16"/>
</svg>
