<?xml version="1.0" encoding="utf-8"?>
<!-- Generator: Adobe Illustrator 15.0.0, SVG Export Plug-In . SVG Version: 6.00 Build 0)  -->
<!DOCTYPE svg PUBLIC "-//W3C//DTD SVG 1.1//EN" "http://www.w3.org/Graphics/SVG/1.1/DTD/svg11.dtd">
<svg version="1.1" id="Layer_1" xmlns="http://www.w3.org/2000/svg" xmlns:xlink="http://www.w3.org/1999/xlink" x="0px" y="0px"
	 width="34px" height="136px" viewBox="0 0 34 136" enable-background="new 0 0 34 136" xml:space="preserve">
<circle fill="#1DDBD8" cx="17" cy="17" r="16"/>
<circle fill="#1DDBD8" cx="17" cy="119" r="16"/>
<circle fill="#1DDBD8" cx="17" cy="51" r="16"/>
<circle opacity="0.6" fill="#1DDBD8" cx="17" cy="85" r="16"/>
<circle opacity="0.3" enable-background="new    " cx="17" cy="119" r="16"/>
<g>
	<path fill="#FFFFFF" d="M13.693,13.347c0.477,0,0.918,0.086,1.322,0.256c0.404,0.17,0.751,0.412,1.042,0.724
		c0.29,0.312,0.518,0.697,0.682,1.156c0.164,0.46,0.246,0.966,0.246,1.518c0,0.532-0.079,1.025-0.239,1.478
		c-0.158,0.453-0.381,0.84-0.667,1.16c-0.285,0.319-0.633,0.568-1.042,0.747c-0.409,0.179-0.857,0.269-1.344,0.269
		c-0.65,0-1.225-0.154-1.725-0.463s-0.887-0.74-1.159-1.293C10.537,18.343,10.4,17.711,10.4,17s0.137-1.344,0.409-1.897
		s0.659-0.984,1.159-1.293S13.043,13.347,13.693,13.347z M11.788,17c0,0.747,0.175,1.35,0.524,1.81
		c0.349,0.459,0.809,0.689,1.381,0.689c0.57,0,1.031-0.23,1.381-0.689c0.349-0.46,0.523-1.063,0.523-1.81s-0.175-1.351-0.523-1.81
		c-0.35-0.459-0.811-0.689-1.381-0.689c-0.572,0-1.032,0.23-1.381,0.689S11.788,16.253,11.788,17z"/>
	<path fill="#FFFFFF" d="M18.008,20.497v-6.994h1.35l2.748,4.583l0.229,0.521l0.029-0.005l-0.112-0.565v-4.534h1.351v6.994h-1.373
		l-2.705-4.506l-0.229-0.516l-0.02,0.005l0.082,0.569v4.447L18.008,20.497L18.008,20.497z"/>
</g>
<g>
	<path fill="#FFFFFF" d="M13.693,47.347c0.477,0,0.918,0.086,1.322,0.256c0.404,0.17,0.751,0.412,1.042,0.724
		c0.29,0.312,0.518,0.697,0.682,1.156c0.164,0.46,0.246,0.966,0.246,1.518c0,0.532-0.079,1.025-0.239,1.478
		c-0.158,0.453-0.381,0.84-0.667,1.16c-0.285,0.319-0.633,0.568-1.042,0.747c-0.409,0.179-0.857,0.269-1.344,0.269
		c-0.65,0-1.225-0.154-1.725-0.463s-0.887-0.74-1.159-1.293C10.537,52.343,10.4,51.711,10.4,51s0.137-1.344,0.409-1.897
		s0.659-0.984,1.159-1.293S13.043,47.347,13.693,47.347z M11.788,51c0,0.747,0.175,1.35,0.524,1.81
		c0.349,0.459,0.809,0.689,1.381,0.689c0.57,0,1.031-0.23,1.381-0.689c0.349-0.46,0.523-1.063,0.523-1.81s-0.175-1.351-0.523-1.81
		c-0.35-0.459-0.811-0.689-1.381-0.689c-0.572,0-1.032,0.23-1.381,0.689S11.788,50.253,11.788,51z"/>
	<path fill="#FFFFFF" d="M18.008,54.497v-6.994h1.35l2.748,4.583l0.229,0.521l0.029-0.005l-0.112-0.565v-4.534h1.351v6.994h-1.373
		l-2.705-4.506l-0.229-0.516l-0.02,0.005l0.082,0.569v4.447L18.008,54.497L18.008,54.497z"/>
</g>
<g opacity="0.6">
	<path fill="#FFFFFF" d="M13.693,81.348c0.477,0,0.918,0.086,1.322,0.256c0.404,0.17,0.751,0.412,1.042,0.724
		c0.29,0.312,0.518,0.696,0.682,1.155c0.164,0.461,0.246,0.967,0.246,1.519c0,0.532-0.079,1.024-0.239,1.478
		c-0.158,0.453-0.381,0.84-0.667,1.16c-0.285,0.319-0.633,0.568-1.042,0.747c-0.409,0.179-0.857,0.269-1.344,0.269
		c-0.65,0-1.225-0.153-1.725-0.463c-0.5-0.309-0.887-0.739-1.159-1.293C10.537,86.343,10.4,85.711,10.4,85s0.137-1.344,0.409-1.896
		c0.272-0.554,0.659-0.984,1.159-1.293C12.468,81.501,13.043,81.348,13.693,81.348z M11.788,85c0,0.747,0.175,1.35,0.524,1.811
		c0.349,0.459,0.809,0.688,1.381,0.688c0.57,0,1.031-0.229,1.381-0.688c0.349-0.461,0.523-1.063,0.523-1.811
		s-0.175-1.352-0.523-1.811c-0.35-0.459-0.811-0.688-1.381-0.688c-0.572,0-1.032,0.229-1.381,0.688S11.788,84.253,11.788,85z"/>
	<path fill="#FFFFFF" d="M18.008,88.497v-6.994h1.35l2.748,4.583l0.229,0.521l0.029-0.006l-0.112-0.564v-4.534h1.351v6.994h-1.373
		l-2.705-4.506l-0.229-0.517l-0.02,0.006l0.082,0.568v4.447L18.008,88.497L18.008,88.497z"/>
</g>
<g>
	<path fill="#FFFFFF" d="M13.693,115.348c0.477,0,0.918,0.086,1.322,0.256c0.404,0.17,0.751,0.412,1.042,0.724
		c0.29,0.312,0.518,0.696,0.682,1.155c0.164,0.461,0.246,0.967,0.246,1.519c0,0.532-0.079,1.024-0.239,1.478
		c-0.158,0.453-0.381,0.84-0.667,1.16c-0.285,0.319-0.633,0.568-1.042,0.747c-0.409,0.179-0.857,0.269-1.344,0.269
		c-0.65,0-1.225-0.153-1.725-0.463c-0.5-0.309-0.887-0.739-1.159-1.293c-0.272-0.555-0.409-1.187-0.409-1.896
		s0.137-1.344,0.409-1.896c0.272-0.554,0.659-0.984,1.159-1.293C12.468,115.503,13.043,115.348,13.693,115.348z M11.788,119
		c0,0.747,0.175,1.35,0.524,1.811c0.349,0.459,0.809,0.688,1.381,0.688c0.57,0,1.031-0.229,1.381-0.688
		c0.349-0.461,0.523-1.063,0.523-1.811s-0.175-1.352-0.523-1.811c-0.35-0.459-0.811-0.688-1.381-0.688
		c-0.572,0-1.032,0.229-1.381,0.688S11.788,118.253,11.788,119z"/>
	<path fill="#FFFFFF" d="M18.008,122.497v-6.994h1.35l2.748,4.583l0.229,0.521l0.029-0.006l-0.112-0.564v-4.534h1.351v6.994h-1.373
		l-2.705-4.506l-0.229-0.517l-0.02,0.006l0.082,0.568v4.447L18.008,122.497L18.008,122.497z"/>
</g>
</svg>
