<?xml version="1.0" encoding="utf-8"?>
<!-- Generator: Adobe Illustrator 15.0.0, SVG Export Plug-In . SVG Version: 6.00 Build 0)  -->
<!DOCTYPE svg PUBLIC "-//W3C//DTD SVG 1.1//EN" "http://www.w3.org/Graphics/SVG/1.1/DTD/svg11.dtd">
<svg version="1.1" id="Layer_1" xmlns="http://www.w3.org/2000/svg" xmlns:xlink="http://www.w3.org/1999/xlink" x="0px" y="0px"
	 width="62px" height="204px" viewBox="0 0 62 204" enable-background="new 0 0 62 204" xml:space="preserve">
<g opacity="0.3">
	<path fill="#08212F" d="M62,85.116C62,94.44,54.004,102,44.141,102H17.86C7.996,102,0,94.44,0,85.116v-0.232
		C0,75.56,7.996,68,17.86,68h26.281C54.004,68,62,75.56,62,84.884V85.116z"/>
</g>
<g opacity="0.5">
	<path fill="#08212F" d="M62,17.116C62,26.44,54.004,34,44.141,34H17.86C7.996,34,0,26.44,0,17.116v-0.232C0,7.56,7.996,0,17.86,0
		h26.281C54.004,0,62,7.56,62,16.884V17.116z"/>
</g>
<g opacity="0.5">
	<path fill="#08212F" d="M62,119.116C62,128.439,54.004,136,44.141,136H17.86C7.996,136,0,128.439,0,119.116v-0.232
		C0,109.561,7.996,102,17.86,102h26.281C54.004,102,62,109.561,62,118.884V119.116z"/>
</g>
<g opacity="0.5">
	<path fill="#08212F" d="M62,51.116C62,60.44,54.004,68,44.141,68H17.86C7.996,68,0,60.44,0,51.116v-0.232
		C0,41.56,7.996,34,17.86,34h26.281C54.004,34,62,41.56,62,50.884V51.116z"/>
</g>
<g>
	<g>
		<path fill="#1DDBD8" d="M44.141,34H17.86C7.996,34,0,41.56,0,50.884v0.232C0,60.44,7.996,68,17.86,68h26.281
			C54.004,68,62,60.44,62,51.116v-0.232C62,41.56,54.004,34,44.141,34z M45,65H17C9.268,65,3,58.732,3,51s6.268-14,14-14h28
			c7.732,0,14,6.268,14,14S52.732,65,45,65z"/>
	</g>
</g>
<g opacity="0.5">
	<path fill="#08212F" d="M62,153.116C62,162.439,54.004,170,44.141,170H17.86C7.996,170,0,162.439,0,153.116v-0.232
		C0,143.561,7.996,136,17.86,136h26.281C54.004,136,62,143.561,62,152.884V153.116z"/>
</g>
<g opacity="0.4">
	<path fill="#FFFFFF" d="M10.683,47.693c0.478,0,0.918,0.086,1.322,0.256c0.404,0.17,0.752,0.412,1.042,0.724
		c0.291,0.312,0.519,0.697,0.683,1.156c0.164,0.46,0.246,0.966,0.246,1.518c0,0.532-0.08,1.025-0.239,1.478
		c-0.158,0.453-0.381,0.84-0.667,1.16c-0.286,0.319-0.633,0.568-1.042,0.747C11.619,54.911,11.17,55,10.683,55
		c-0.649,0-1.224-0.154-1.724-0.463s-0.887-0.74-1.16-1.293c-0.272-0.555-0.408-1.187-0.408-1.897s0.136-1.344,0.408-1.897
		c0.273-0.554,0.66-0.984,1.16-1.293C9.459,47.848,10.033,47.693,10.683,47.693z M8.778,51.347c0,0.747,0.175,1.35,0.523,1.81
		c0.349,0.459,0.81,0.689,1.381,0.689c0.571,0,1.032-0.23,1.381-0.689c0.349-0.46,0.523-1.063,0.523-1.81
		c0-0.747-0.175-1.351-0.523-1.81s-0.81-0.689-1.381-0.689c-0.571,0-1.032,0.23-1.381,0.689C8.952,49.996,8.778,50.6,8.778,51.347z"
		/>
	<path fill="#FFFFFF" d="M14.998,54.844V47.85h4.607v1.154h-3.258v1.743h2.912v1.155h-2.912v2.941L14.998,54.844L14.998,54.844z"/>
	<path fill="#FFFFFF" d="M20.482,54.844V47.85h4.607v1.154h-3.258v1.743h2.912v1.155h-2.912v2.941L20.482,54.844L20.482,54.844z"/>
</g>
<g opacity="0.4">
	<path fill="#FFFFFF" d="M40.264,47.693c0.478,0,0.918,0.086,1.322,0.256c0.404,0.17,0.751,0.412,1.042,0.724
		c0.29,0.312,0.519,0.697,0.683,1.156c0.164,0.46,0.246,0.966,0.246,1.518c0,0.532-0.08,1.025-0.24,1.478
		c-0.157,0.453-0.381,0.84-0.666,1.16c-0.285,0.319-0.633,0.568-1.043,0.747C41.199,54.911,40.75,55,40.264,55
		c-0.65,0-1.225-0.154-1.725-0.463s-0.887-0.74-1.159-1.293c-0.272-0.555-0.409-1.187-0.409-1.897s0.137-1.344,0.409-1.897
		c0.272-0.553,0.659-0.984,1.159-1.293C39.039,47.848,39.613,47.693,40.264,47.693z M38.357,51.347c0,0.747,0.176,1.35,0.524,1.81
		c0.349,0.459,0.81,0.689,1.382,0.689c0.569,0,1.03-0.23,1.381-0.689c0.349-0.46,0.522-1.063,0.522-1.81
		c0-0.747-0.175-1.351-0.522-1.81c-0.351-0.459-0.812-0.689-1.381-0.689c-0.572,0-1.033,0.23-1.382,0.689S38.357,50.6,38.357,51.347
		z"/>
	<path fill="#FFFFFF" d="M44.578,54.844V47.85h1.35l2.747,4.583l0.229,0.521l0.029-0.005l-0.113-0.565V47.85h1.351v6.994h-1.373
		l-2.704-4.506l-0.229-0.516l-0.02,0.005l0.082,0.569v4.447L44.578,54.844L44.578,54.844z"/>
</g>
<g opacity="0.2">
	<path fill="#FFFFFF" d="M10.683,81.693c0.478,0,0.918,0.086,1.322,0.256c0.404,0.17,0.752,0.412,1.042,0.724
		c0.291,0.312,0.519,0.697,0.683,1.156c0.164,0.46,0.246,0.966,0.246,1.518c0,0.532-0.08,1.025-0.239,1.478
		c-0.158,0.453-0.381,0.84-0.667,1.16c-0.286,0.319-0.633,0.568-1.042,0.747C11.619,88.911,11.17,89,10.683,89
		c-0.649,0-1.224-0.154-1.724-0.463s-0.887-0.74-1.16-1.293c-0.272-0.555-0.408-1.187-0.408-1.897s0.136-1.344,0.408-1.897
		c0.273-0.554,0.66-0.984,1.16-1.293C9.459,81.848,10.033,81.693,10.683,81.693z M8.778,85.347c0,0.747,0.175,1.35,0.523,1.81
		c0.349,0.459,0.81,0.689,1.381,0.689c0.571,0,1.032-0.23,1.381-0.689c0.349-0.46,0.523-1.063,0.523-1.81
		c0-0.747-0.175-1.351-0.523-1.81s-0.81-0.689-1.381-0.689c-0.571,0-1.032,0.23-1.381,0.689C8.952,83.996,8.778,84.6,8.778,85.347z"
		/>
	<path fill="#FFFFFF" d="M14.998,88.844V81.85h4.607v1.154h-3.258v1.743h2.912v1.155h-2.912v2.941L14.998,88.844L14.998,88.844z"/>
	<path fill="#FFFFFF" d="M20.482,88.844V81.85h4.607v1.154h-3.258v1.743h2.912v1.155h-2.912v2.941L20.482,88.844L20.482,88.844z"/>
</g>
<g opacity="0.2">
	<path fill="#FFFFFF" d="M40.264,81.693c0.478,0,0.918,0.086,1.322,0.256c0.404,0.17,0.751,0.412,1.042,0.724
		c0.29,0.312,0.519,0.697,0.683,1.156c0.164,0.46,0.246,0.966,0.246,1.518c0,0.532-0.08,1.025-0.24,1.478
		c-0.157,0.453-0.381,0.84-0.666,1.16c-0.285,0.319-0.633,0.568-1.043,0.747C41.199,88.911,40.75,89,40.264,89
		c-0.65,0-1.225-0.154-1.725-0.463s-0.887-0.74-1.159-1.293c-0.272-0.555-0.409-1.187-0.409-1.897s0.137-1.344,0.409-1.897
		c0.272-0.553,0.659-0.984,1.159-1.293C39.039,81.848,39.613,81.693,40.264,81.693z M38.357,85.347c0,0.747,0.176,1.35,0.524,1.81
		c0.349,0.459,0.81,0.689,1.382,0.689c0.569,0,1.03-0.23,1.381-0.689c0.349-0.46,0.522-1.063,0.522-1.81
		c0-0.747-0.175-1.351-0.522-1.81c-0.351-0.459-0.812-0.689-1.381-0.689c-0.572,0-1.033,0.23-1.382,0.689S38.357,84.6,38.357,85.347
		z"/>
	<path fill="#FFFFFF" d="M44.578,88.844V81.85h1.35l2.747,4.583l0.229,0.521l0.029-0.005l-0.113-0.565V81.85h1.351v6.994h-1.373
		l-2.704-4.506l-0.229-0.516l-0.02,0.005l0.082,0.569v4.447L44.578,88.844L44.578,88.844z"/>
</g>
<g opacity="0.3">
	<path fill="#08212F" d="M62,187.116C62,196.439,54.004,204,44.141,204H17.86C7.996,204,0,196.439,0,187.116v-0.232
		C0,177.561,7.996,170,17.86,170h26.281C54.004,170,62,177.561,62,186.884V187.116z"/>
</g>
<g opacity="0.4">
	<g>
		<path fill="#FFFFFF" d="M41.693,13.347c0.477,0,0.918,0.086,1.322,0.256c0.403,0.17,0.75,0.412,1.041,0.724
			s0.519,0.697,0.682,1.156c0.164,0.46,0.246,0.966,0.246,1.518c0,0.532-0.078,1.025-0.238,1.478
			c-0.158,0.453-0.381,0.84-0.667,1.16c-0.285,0.319-0.634,0.568-1.042,0.747c-0.409,0.179-0.857,0.269-1.344,0.269
			c-0.65,0-1.226-0.154-1.726-0.463s-0.887-0.74-1.159-1.293C38.537,18.343,38.4,17.711,38.4,17s0.137-1.344,0.408-1.897
			c0.272-0.553,0.659-0.984,1.159-1.293S41.043,13.347,41.693,13.347z M39.788,17c0,0.747,0.175,1.35,0.524,1.81
			c0.349,0.459,0.809,0.689,1.381,0.689c0.57,0,1.031-0.23,1.381-0.689c0.349-0.46,0.523-1.063,0.523-1.81s-0.176-1.351-0.523-1.81
			c-0.35-0.459-0.811-0.689-1.381-0.689c-0.572,0-1.032,0.23-1.381,0.689C39.963,15.649,39.788,16.253,39.788,17z"/>
		<path fill="#FFFFFF" d="M46.008,20.497v-6.994h1.35l2.748,4.583l0.229,0.521l0.029-0.005l-0.112-0.565v-4.534h1.351v6.994h-1.373
			l-2.705-4.506l-0.229-0.516l-0.02,0.005l0.082,0.569v4.447L46.008,20.497L46.008,20.497z"/>
	</g>
	<g>
		<path fill="#FFFFFF" d="M11.442,13.347c0.478,0,0.918,0.086,1.322,0.256c0.404,0.17,0.752,0.412,1.042,0.724
			c0.291,0.312,0.519,0.697,0.683,1.156c0.164,0.46,0.246,0.966,0.246,1.518c0,0.532-0.08,1.025-0.239,1.478
			c-0.158,0.453-0.381,0.84-0.667,1.16c-0.286,0.319-0.633,0.568-1.042,0.747c-0.409,0.179-0.857,0.269-1.345,0.269
			c-0.649,0-1.224-0.154-1.724-0.463s-0.887-0.74-1.16-1.293C8.286,18.343,8.15,17.711,8.15,17s0.136-1.344,0.408-1.897
			c0.273-0.554,0.66-0.984,1.16-1.293S10.793,13.347,11.442,13.347z M9.538,17c0,0.747,0.175,1.35,0.523,1.81
			c0.349,0.459,0.81,0.689,1.381,0.689c0.571,0,1.032-0.23,1.381-0.689c0.349-0.46,0.523-1.063,0.523-1.81s-0.175-1.351-0.523-1.81
			c-0.348-0.459-0.81-0.689-1.381-0.689c-0.571,0-1.032,0.23-1.381,0.689S9.538,16.253,9.538,17z"/>
		<path fill="#FFFFFF" d="M15.758,20.497v-6.994h4.607v1.154h-3.258V16.4h2.912v1.155h-2.912v2.941L15.758,20.497L15.758,20.497z"/>
		<path fill="#FFFFFF" d="M21.242,20.497v-6.994h4.607v1.154h-3.258V16.4h2.912v1.155h-2.912v2.941L21.242,20.497L21.242,20.497z"/>
	</g>
</g>
<g opacity="0.4">
	<g>
		<path fill="#FFFFFF" d="M39.441,115.348c0.479,0,0.918,0.086,1.322,0.256s0.752,0.412,1.043,0.724s0.519,0.696,0.682,1.155
			c0.164,0.461,0.246,0.967,0.246,1.519c0,0.532-0.08,1.024-0.238,1.478s-0.381,0.84-0.667,1.16
			c-0.286,0.319-0.634,0.568-1.042,0.747c-0.409,0.179-0.857,0.269-1.346,0.269c-0.648,0-1.224-0.153-1.724-0.463
			c-0.5-0.309-0.887-0.739-1.159-1.293c-0.272-0.555-0.408-1.187-0.408-1.896s0.136-1.344,0.408-1.896
			c0.272-0.555,0.659-0.984,1.159-1.293C38.218,115.503,38.793,115.348,39.441,115.348z M37.538,119c0,0.747,0.175,1.35,0.522,1.811
			c0.35,0.459,0.811,0.688,1.381,0.688c0.572,0,1.033-0.229,1.382-0.688c0.349-0.461,0.522-1.063,0.522-1.811
			s-0.175-1.352-0.522-1.811c-0.349-0.459-0.81-0.688-1.382-0.688c-0.57,0-1.031,0.229-1.381,0.688
			C37.712,117.648,37.538,118.253,37.538,119z"/>
		<path fill="#FFFFFF" d="M43.758,122.497v-6.994h4.607v1.154h-3.258v1.743h2.912v1.154h-2.912v2.941L43.758,122.497L43.758,122.497
			z"/>
		<path fill="#FFFFFF" d="M49.242,122.497v-6.994h4.607v1.154h-3.259v1.743h2.912v1.154h-2.912v2.941L49.242,122.497L49.242,122.497
			z"/>
	</g>
	<g>
		<path fill="#FFFFFF" d="M13.693,115.348c0.477,0,0.918,0.086,1.322,0.256c0.404,0.17,0.751,0.412,1.042,0.724
			c0.29,0.312,0.518,0.696,0.682,1.155c0.164,0.461,0.246,0.967,0.246,1.519c0,0.532-0.079,1.024-0.239,1.478
			c-0.158,0.453-0.381,0.84-0.667,1.16c-0.285,0.319-0.633,0.568-1.042,0.747c-0.409,0.179-0.857,0.269-1.344,0.269
			c-0.65,0-1.225-0.153-1.725-0.463c-0.5-0.309-0.887-0.739-1.159-1.293c-0.272-0.555-0.409-1.187-0.409-1.896
			s0.137-1.344,0.409-1.896c0.272-0.554,0.659-0.984,1.159-1.293C12.468,115.503,13.043,115.348,13.693,115.348z M11.788,119
			c0,0.747,0.175,1.35,0.524,1.811c0.349,0.459,0.809,0.688,1.381,0.688c0.57,0,1.031-0.229,1.381-0.688
			c0.349-0.461,0.523-1.063,0.523-1.811s-0.175-1.352-0.523-1.811c-0.35-0.459-0.811-0.688-1.381-0.688
			c-0.572,0-1.032,0.229-1.381,0.688S11.788,118.253,11.788,119z"/>
		<path fill="#FFFFFF" d="M18.008,122.497v-6.994h1.35l2.747,4.583l0.229,0.521l0.029-0.006l-0.112-0.564v-4.534h1.35v6.994h-1.373
			l-2.704-4.506l-0.229-0.517l-0.02,0.006l0.083,0.568v4.447L18.008,122.497L18.008,122.497z"/>
	</g>
</g>
<g opacity="0.4">
	<g>
		<path fill="#FFFFFF" d="M39.441,149.348c0.479,0,0.918,0.086,1.322,0.256s0.752,0.412,1.043,0.724s0.519,0.696,0.682,1.155
			c0.164,0.461,0.246,0.967,0.246,1.519c0,0.532-0.08,1.024-0.238,1.478s-0.381,0.84-0.667,1.16
			c-0.286,0.319-0.634,0.568-1.042,0.747c-0.409,0.179-0.857,0.269-1.346,0.269c-0.648,0-1.224-0.153-1.724-0.463
			c-0.5-0.309-0.887-0.739-1.159-1.293c-0.272-0.555-0.408-1.187-0.408-1.896s0.136-1.344,0.408-1.896
			c0.272-0.555,0.659-0.984,1.159-1.293C38.218,149.503,38.793,149.348,39.441,149.348z M37.538,153c0,0.747,0.175,1.35,0.522,1.811
			c0.35,0.459,0.811,0.688,1.381,0.688c0.572,0,1.033-0.229,1.382-0.688c0.349-0.461,0.522-1.063,0.522-1.811
			s-0.175-1.352-0.522-1.811c-0.349-0.459-0.81-0.688-1.382-0.688c-0.57,0-1.031,0.229-1.381,0.688
			C37.712,151.648,37.538,152.253,37.538,153z"/>
		<path fill="#FFFFFF" d="M43.758,156.497v-6.994h4.607v1.154h-3.258v1.743h2.912v1.154h-2.912v2.941L43.758,156.497L43.758,156.497
			z"/>
		<path fill="#FFFFFF" d="M49.242,156.497v-6.994h4.607v1.154h-3.259v1.743h2.912v1.154h-2.912v2.941L49.242,156.497L49.242,156.497
			z"/>
	</g>
	<g>
		<path fill="#FFFFFF" d="M13.693,149.348c0.477,0,0.918,0.086,1.322,0.256c0.404,0.17,0.751,0.412,1.042,0.724
			c0.29,0.312,0.518,0.696,0.682,1.155c0.164,0.461,0.246,0.967,0.246,1.519c0,0.532-0.079,1.024-0.239,1.478
			c-0.158,0.453-0.381,0.84-0.667,1.16c-0.285,0.319-0.633,0.568-1.042,0.747c-0.409,0.179-0.857,0.269-1.344,0.269
			c-0.65,0-1.225-0.153-1.725-0.463c-0.5-0.309-0.887-0.739-1.159-1.293c-0.272-0.555-0.409-1.187-0.409-1.896
			s0.137-1.344,0.409-1.896c0.272-0.554,0.659-0.984,1.159-1.293C12.468,149.503,13.043,149.348,13.693,149.348z M11.788,153
			c0,0.747,0.175,1.35,0.524,1.811c0.349,0.459,0.809,0.688,1.381,0.688c0.57,0,1.031-0.229,1.381-0.688
			c0.349-0.461,0.523-1.063,0.523-1.811s-0.175-1.352-0.523-1.811c-0.35-0.459-0.811-0.688-1.381-0.688
			c-0.572,0-1.032,0.229-1.381,0.688S11.788,152.253,11.788,153z"/>
		<path fill="#FFFFFF" d="M18.008,156.497v-6.994h1.35l2.747,4.583l0.229,0.521l0.029-0.006l-0.112-0.564v-4.534h1.35v6.994h-1.373
			l-2.704-4.506l-0.229-0.517l-0.02,0.006l0.083,0.568v4.447L18.008,156.497L18.008,156.497z"/>
	</g>
</g>
<g opacity="0.2">
	<g>
		<path fill="#FFFFFF" d="M39.441,183.348c0.479,0,0.918,0.086,1.322,0.256s0.752,0.412,1.043,0.724s0.519,0.696,0.682,1.155
			c0.164,0.461,0.246,0.967,0.246,1.519c0,0.532-0.08,1.024-0.238,1.478s-0.381,0.84-0.667,1.16
			c-0.286,0.319-0.634,0.568-1.042,0.747c-0.409,0.179-0.857,0.269-1.346,0.269c-0.648,0-1.224-0.153-1.724-0.463
			c-0.5-0.309-0.887-0.739-1.159-1.293c-0.272-0.555-0.408-1.187-0.408-1.896s0.136-1.344,0.408-1.896
			c0.272-0.555,0.659-0.984,1.159-1.293C38.218,183.503,38.793,183.348,39.441,183.348z M37.538,187c0,0.747,0.175,1.35,0.522,1.811
			c0.35,0.459,0.811,0.688,1.381,0.688c0.572,0,1.033-0.229,1.382-0.688c0.349-0.461,0.522-1.063,0.522-1.811
			s-0.175-1.352-0.522-1.811c-0.349-0.459-0.81-0.688-1.382-0.688c-0.57,0-1.031,0.229-1.381,0.688
			C37.712,185.648,37.538,186.253,37.538,187z"/>
		<path fill="#FFFFFF" d="M43.758,190.497v-6.994h4.607v1.154h-3.258v1.743h2.912v1.154h-2.912v2.941L43.758,190.497L43.758,190.497
			z"/>
		<path fill="#FFFFFF" d="M49.242,190.497v-6.994h4.607v1.154h-3.259v1.743h2.912v1.154h-2.912v2.941L49.242,190.497L49.242,190.497
			z"/>
	</g>
	<g>
		<path fill="#FFFFFF" d="M13.693,183.348c0.477,0,0.918,0.086,1.322,0.256c0.404,0.17,0.751,0.412,1.042,0.724
			c0.29,0.312,0.518,0.696,0.682,1.155c0.164,0.461,0.246,0.967,0.246,1.519c0,0.532-0.079,1.024-0.239,1.478
			c-0.158,0.453-0.381,0.84-0.667,1.16c-0.285,0.319-0.633,0.568-1.042,0.747c-0.409,0.179-0.857,0.269-1.344,0.269
			c-0.65,0-1.225-0.153-1.725-0.463c-0.5-0.309-0.887-0.739-1.159-1.293c-0.272-0.555-0.409-1.187-0.409-1.896
			s0.137-1.344,0.409-1.896c0.272-0.554,0.659-0.984,1.159-1.293C12.468,183.503,13.043,183.348,13.693,183.348z M11.788,187
			c0,0.747,0.175,1.35,0.524,1.811c0.349,0.459,0.809,0.688,1.381,0.688c0.57,0,1.031-0.229,1.381-0.688
			c0.349-0.461,0.523-1.063,0.523-1.811s-0.175-1.352-0.523-1.811c-0.35-0.459-0.811-0.688-1.381-0.688
			c-0.572,0-1.032,0.229-1.381,0.688S11.788,186.253,11.788,187z"/>
		<path fill="#FFFFFF" d="M18.008,190.497v-6.994h1.35l2.747,4.583l0.229,0.521l0.029-0.006l-0.112-0.564v-4.534h1.35v6.994h-1.373
			l-2.704-4.506l-0.229-0.517l-0.02,0.006l0.083,0.568v4.447L18.008,190.497L18.008,190.497z"/>
	</g>
</g>
<g>
	<g>
		<path fill="#1DDBD8" d="M44.141,136H17.86C7.996,136,0,143.561,0,152.884v0.232C0,162.439,7.996,170,17.86,170h26.281
			C54.004,170,62,162.439,62,153.116v-0.232C62,143.561,54.004,136,44.141,136z M45,167H17c-7.732,0-14-6.268-14-14s6.268-14,14-14
			h28c7.732,0,14,6.268,14,14S52.732,167,45,167z"/>
	</g>
</g>
</svg>
