<?xml version="1.0" encoding="utf-8"?>
<!-- Generator: Adobe Illustrator 15.0.0, SVG Export Plug-In . SVG Version: 6.00 Build 0)  -->
<!DOCTYPE svg PUBLIC "-//W3C//DTD SVG 1.1//EN" "http://www.w3.org/Graphics/SVG/1.1/DTD/svg11.dtd">
<svg version="1.1" id="Layer_1" xmlns="http://www.w3.org/2000/svg" xmlns:xlink="http://www.w3.org/1999/xlink" x="0px" y="0px"
	 width="320px" height="320px" viewBox="0 0 320 320" enable-background="new 0 0 320 320" xml:space="preserve">
<g>
	<path fill="#282828" d="M160,0C71.634,0,0,71.634,0,160c0,88.365,71.634,160,160,160c88.365,0,160-71.635,160-160
		C320,71.634,248.365,0,160,0z M255.459,255.459C229.961,280.957,196.061,295,160,295c-36.06,0-69.962-14.043-95.46-39.541
		S25,196.061,25,160c0-36.06,14.042-69.961,39.541-95.459S123.94,25,160,25c36.059,0,69.96,14.042,95.458,39.541S295,123.94,295,160
		C295,196.061,280.957,229.961,255.459,255.459z"/>
	<g>
		<circle fill="#505050" cx="160" cy="12.73" r="2"/>
		<circle fill="#505050" cx="160" cy="307.27" r="2"/>
		<circle fill="#505050" cx="307.27" cy="160" r="2"/>
		<circle fill="#505050" cx="12.73" cy="160" r="2"/>
		<circle fill="#505050" cx="86.366" cy="32.461" r="2"/>
		<circle fill="#505050" cx="233.635" cy="287.539" r="2"/>
		<circle fill="#505050" cx="287.539" cy="86.365" r="2"/>
		<circle fill="#505050" cx="32.46" cy="233.635" r="2"/>
		<circle fill="#505050" cx="32.461" cy="86.365" r="2"/>
		<circle fill="#505050" cx="287.539" cy="233.634" r="1.999"/>
		<circle fill="#505050" cx="233.635" cy="32.46" r="2"/>
		<circle fill="#505050" cx="86.364" cy="287.539" r="2"/>
		<circle fill="#505050" cx="121.884" cy="17.748" r="2"/>
		<circle fill="#505050" cx="198.115" cy="302.25" r="2"/>
		<circle fill="#505050" cx="302.25" cy="121.884" r="2"/>
		<circle fill="#505050" cx="17.748" cy="198.115" r="2"/>
		<circle fill="#505050" cx="55.865" cy="55.865" r="2"/>
		<circle fill="#505050" cx="264.135" cy="264.135" r="2"/>
		<circle fill="#505050" cx="264.135" cy="55.864" r="2"/>
		<circle fill="#505050" cx="55.864" cy="264.135" r="2"/>
		<circle fill="#505050" cx="17.749" cy="121.884" r="2"/>
		<circle fill="#505050" cx="302.25" cy="198.115" r="2"/>
		<circle fill="#505050" cx="198.115" cy="17.748" r="2"/>
		<circle fill="#505050" cx="121.883" cy="302.251" r="2"/>
		<circle fill="#505050" cx="140.778" cy="13.99" r="2"/>
		<circle fill="#505050" cx="179.223" cy="306.009" r="1.999"/>
		<circle fill="#505050" cx="306.01" cy="140.777" r="2"/>
		<circle fill="#505050" cx="13.991" cy="179.222" r="2.001"/>
		<circle fill="#505050" cx="70.349" cy="43.163" r="2"/>
		<circle fill="#505050" cx="249.652" cy="276.836" r="1.999"/>
		<path fill="#505050" d="M278.055,71.935c-0.877,0.673-2.133,0.507-2.805-0.369s-0.508-2.131,0.371-2.804
			c0.873-0.672,2.131-0.507,2.803,0.369S278.93,71.263,278.055,71.935z"/>
		<circle fill="#505050" cx="43.163" cy="249.65" r="2"/>
		<circle fill="#505050" cx="23.941" cy="103.642" r="2"/>
		<circle fill="#505050" cx="296.061" cy="216.356" r="2.001"/>
		<circle fill="#505050" cx="216.357" cy="23.94" r="2"/>
		<circle fill="#505050" cx="103.642" cy="296.059" r="2"/>
		<circle fill="#505050" cx="103.643" cy="23.94" r="2"/>
		<circle fill="#505050" cx="216.357" cy="296.059" r="2"/>
		<path fill="#505050" d="M296.824,105.49c-1.021,0.423-2.191-0.063-2.613-1.083c-0.422-1.021,0.061-2.19,1.084-2.613
			c1.018-0.422,2.189,0.062,2.611,1.082C298.33,103.897,297.844,105.068,296.824,105.49z"/>
		<circle fill="#505050" cx="23.94" cy="216.357" r="2"/>
		<circle fill="#505050" cx="43.165" cy="70.348" r="2"/>
		<path fill="#505050" d="M278.055,248.064c0.875,0.672,1.041,1.93,0.369,2.803c-0.674,0.879-1.928,1.043-2.805,0.369
			c-0.875-0.672-1.043-1.926-0.369-2.803C275.924,247.559,277.18,247.393,278.055,248.064z"/>
		<path fill="#505050" d="M251.24,44.38c-0.676,0.877-1.93,1.042-2.805,0.369c-0.879-0.672-1.043-1.928-0.369-2.805
			c0.67-0.875,1.928-1.042,2.805-0.369C251.746,42.249,251.91,43.505,251.24,44.38z"/>
		<circle fill="#505050" cx="70.348" cy="276.835" r="2"/>
		<circle fill="#505050" cx="13.991" cy="140.777" r="2"/>
		<circle fill="#505050" cx="306.01" cy="179.222" r="2.001"/>
		<circle fill="#505050" cx="179.223" cy="13.99" r="1.999"/>
		<circle fill="#505050" cx="140.777" cy="306.009" r="2"/>
	</g>
</g>
</svg>
