<?xml version="1.0" encoding="utf-8"?>
<!-- Generator: Adobe Illustrator 15.0.0, SVG Export Plug-In . SVG Version: 6.00 Build 0)  -->
<!DOCTYPE svg PUBLIC "-//W3C//DTD SVG 1.1//EN" "http://www.w3.org/Graphics/SVG/1.1/DTD/svg11.dtd">
<svg version="1.1" id="Layer_1" xmlns="http://www.w3.org/2000/svg" xmlns:xlink="http://www.w3.org/1999/xlink" x="0px" y="0px"
	 width="48px" height="288px" viewBox="0 0 48 288" enable-background="new 0 0 48 288" xml:space="preserve">
<g>
	<g opacity="0.95">
		<path fill="#38404B" d="M37,42H11c-2.757,0-5-2.243-5-5V11c0-2.757,2.243-5,5-5h26c2.757,0,5,2.243,5,5v26
			C42,39.757,39.757,42,37,42z"/>
	</g>
	<g opacity="0.4">
		<path fill="#FAFAFA" d="M37,42H11c-2.757,0-5-2.243-5-5V11c0-2.757,2.243-5,5-5h26c2.757,0,5,2.243,5,5v26
			C42,39.757,39.757,42,37,42z M11,8c-1.654,0-3,1.346-3,3v26c0,1.654,1.346,3,3,3h26c1.654,0,3-1.346,3-3V11c0-1.654-1.346-3-3-3
			H11z"/>
	</g>
</g>
<g>
	<g opacity="0.4">
		<path opacity="0.95" fill="#38404B" d="M37,90H11c-2.757,0-5-2.243-5-5V59c0-2.757,2.243-5,5-5h26c2.757,0,5,2.243,5,5v26
			C42,87.757,39.757,90,37,90z"/>
		<g opacity="0.4">
			<path fill="#FAFAFA" d="M37,90H11c-2.757,0-5-2.243-5-5V59c0-2.757,2.243-5,5-5h26c2.757,0,5,2.243,5,5v26
				C42,87.757,39.757,90,37,90z M11,56c-1.654,0-3,1.346-3,3v26c0,1.654,1.346,3,3,3h26c1.654,0,3-1.346,3-3V59c0-1.654-1.346-3-3-3
				H11z"/>
		</g>
	</g>
	<path opacity="0.15" fill="#FAFAFA" enable-background="new    " d="M45,86c0,3.866-3.134,7-7,7H10c-3.866,0-7-3.134-7-7V58
		c0-3.866,3.134-7,7-7h28c3.866,0,7,3.134,7,7V86z"/>
</g>
<g opacity="0.4">
	<g opacity="0.95">
		<path fill="#38404B" d="M37,138.25H11c-2.757,0-5-2.243-5-5v-26c0-2.757,2.243-5,5-5h26c2.757,0,5,2.243,5,5v26
			C42,136.007,39.757,138.25,37,138.25z"/>
	</g>
	<g opacity="0.4">
		<path fill="#FAFAFA" d="M37,138.25H11c-2.757,0-5-2.243-5-5v-26c0-2.757,2.243-5,5-5h26c2.757,0,5,2.243,5,5v26
			C42,136.007,39.757,138.25,37,138.25z M11,104.25c-1.654,0-3,1.346-3,3v26c0,1.654,1.346,3,3,3h26c1.654,0,3-1.346,3-3v-26
			c0-1.654-1.346-3-3-3H11z"/>
	</g>
</g>
<g>
	<g opacity="0.95">
		<path fill="#38404B" d="M37,186H11c-2.757,0-5-2.243-5-5v-26c0-2.757,2.243-5,5-5h26c2.757,0,5,2.243,5,5v26
			C42,183.757,39.757,186,37,186z"/>
	</g>
	<g opacity="0.4">
		<path fill="#FAFAFA" d="M37,186H11c-2.757,0-5-2.243-5-5v-26c0-2.757,2.243-5,5-5h26c2.757,0,5,2.243,5,5v26
			C42,183.757,39.757,186,37,186z M11,152c-1.654,0-3,1.346-3,3v26c0,1.654,1.346,3,3,3h26c1.654,0,3-1.346,3-3v-26
			c0-1.654-1.346-3-3-3H11z"/>
	</g>
	<path fill="#1CD2D2" d="M19.677,175.906c-0.379,0-0.759-0.143-1.05-0.43l-6.438-6.313c-0.592-0.58-0.602-1.529-0.021-2.121
		c0.581-0.591,1.53-0.601,2.121-0.021l5.381,5.271l12.783-12.707c0.588-0.582,1.537-0.58,2.121,0.013
		c0.584,0.588,0.58,1.532-0.006,2.116l-13.834,13.75C20.441,175.762,20.06,175.906,19.677,175.906z"/>
</g>
<g>
	<g opacity="0.4">
		<path opacity="0.95" fill="#38404B" d="M37,234H11c-2.757,0-5-2.243-5-5v-26c0-2.757,2.243-5,5-5h26c2.757,0,5,2.243,5,5v26
			C42,231.757,39.757,234,37,234z"/>
		<g opacity="0.4">
			<path fill="#FAFAFA" d="M37,234H11c-2.757,0-5-2.243-5-5v-26c0-2.757,2.243-5,5-5h26c2.757,0,5,2.243,5,5v26
				C42,231.757,39.757,234,37,234z M11,200c-1.654,0-3,1.346-3,3v26c0,1.654,1.346,3,3,3h26c1.654,0,3-1.346,3-3v-26
				c0-1.654-1.346-3-3-3H11z"/>
		</g>
	</g>
	<path fill="#1CD2D2" d="M19.677,223.906c-0.379,0-0.759-0.143-1.05-0.43l-6.438-6.313c-0.592-0.58-0.602-1.529-0.021-2.121
		c0.581-0.591,1.53-0.601,2.121-0.021l5.381,5.271l12.783-12.707c0.588-0.582,1.537-0.58,2.121,0.013
		c0.584,0.588,0.58,1.532-0.006,2.116l-13.834,13.75C20.441,223.762,20.06,223.906,19.677,223.906z"/>
	<path opacity="0.15" fill="#FAFAFA" enable-background="new    " d="M45,230c0,3.866-3.134,7-7,7H10c-3.866,0-7-3.134-7-7v-28
		c0-3.866,3.134-7,7-7h28c3.866,0,7,3.134,7,7V230z"/>
</g>
<g opacity="0.4">
	<g opacity="0.95">
		<path fill="#38404B" d="M37,282H11c-2.757,0-5-2.242-5-5v-26c0-2.756,2.243-5,5-5h26c2.757,0,5,2.244,5,5v26
			C42,279.758,39.757,282,37,282z"/>
	</g>
	<g opacity="0.4">
		<path fill="#FAFAFA" d="M37,282H11c-2.757,0-5-2.242-5-5v-26c0-2.756,2.243-5,5-5h26c2.757,0,5,2.244,5,5v26
			C42,279.758,39.757,282,37,282z M11,248c-1.654,0-3,1.346-3,3v26c0,1.654,1.346,3,3,3h26c1.654,0,3-1.346,3-3v-26
			c0-1.654-1.346-3-3-3H11z"/>
	</g>
	<path fill="#1CD2D2" d="M19.677,271.906c-0.379,0-0.759-0.143-1.05-0.43l-6.438-6.313c-0.592-0.58-0.602-1.529-0.021-2.121
		s1.53-0.602,2.121-0.021l5.381,5.271l12.783-12.707c0.588-0.582,1.537-0.58,2.121,0.012c0.584,0.588,0.58,1.533-0.006,2.117
		l-13.834,13.75C20.441,271.762,20.06,271.906,19.677,271.906z"/>
</g>
</svg>
