<?xml version="1.0" encoding="utf-8"?>
<!-- Generator: Adobe Illustrator 15.0.0, SVG Export Plug-In . SVG Version: 6.00 Build 0)  -->
<!DOCTYPE svg PUBLIC "-//W3C//DTD SVG 1.1//EN" "http://www.w3.org/Graphics/SVG/1.1/DTD/svg11.dtd">
<svg version="1.1" id="Layer_1" xmlns="http://www.w3.org/2000/svg" xmlns:xlink="http://www.w3.org/1999/xlink" x="0px" y="0px"
	 width="48px" height="288px" viewBox="0 0 48 288" enable-background="new 0 0 48 288" xml:space="preserve">
<g>
	<g opacity="0.95">
		<path fill="#38404B" d="M24,44C12.972,44,4,35.028,4,24S12.972,4,24,4c11.028,0,20,8.972,20,20S35.028,44,24,44z"/>
	</g>
	
		<circle opacity="0.4" fill="none" stroke="#FAFAFA" stroke-width="2" stroke-miterlimit="10" enable-background="new    " cx="24" cy="24" r="19"/>
</g>
<g>
	<g opacity="0.4">
		<g opacity="0.95">
			<path fill="#38404B" d="M24,92C12.972,92,4,83.028,4,72s8.972-20,20-20c11.028,0,20,8.972,20,20S35.028,92,24,92z"/>
		</g>
		
			<circle opacity="0.4" fill="none" stroke="#FAFAFA" stroke-width="2" stroke-miterlimit="10" enable-background="new    " cx="24" cy="72" r="19"/>
	</g>
	<circle opacity="0.15" fill="#FFFFFF" enable-background="new    " cx="24" cy="72" r="23"/>
</g>
<g opacity="0.4">
	<g opacity="0.95">
		<path fill="#38404B" d="M24,140c-11.028,0-20-8.972-20-20s8.972-20,20-20c11.028,0,20,8.972,20,20S35.028,140,24,140z"/>
	</g>
	
		<circle opacity="0.4" fill="none" stroke="#FAFAFA" stroke-width="2" stroke-miterlimit="10" enable-background="new    " cx="24" cy="120" r="19"/>
</g>
<g>
	<g>
		<g opacity="0.95">
			<path fill="#38404B" d="M24,188c-11.028,0-20-8.973-20-20s8.972-20,20-20c11.028,0,20,8.973,20,20S35.028,188,24,188z"/>
		</g>
		
			<circle opacity="0.4" fill="none" stroke="#FAFAFA" stroke-width="2" stroke-miterlimit="10" enable-background="new    " cx="24" cy="168" r="19"/>
	</g>
	<circle fill="#1CD2D2" cx="24" cy="168" r="9"/>
</g>
<g>
	<g opacity="0.4">
		<g opacity="0.95">
			<path fill="#38404B" d="M24,236c-11.028,0-20-8.973-20-20s8.972-20,20-20c11.028,0,20,8.973,20,20S35.028,236,24,236z"/>
		</g>
		
			<circle opacity="0.4" fill="none" stroke="#FAFAFA" stroke-width="2" stroke-miterlimit="10" enable-background="new    " cx="24" cy="216" r="19"/>
	</g>
	<circle fill="#1CD2D2" cx="24" cy="216" r="9"/>
	<circle opacity="0.15" fill="#FFFFFF" enable-background="new    " cx="24" cy="216" r="23"/>
</g>
<g opacity="0.4">
	<g>
		<g opacity="0.95">
			<path fill="#38404B" d="M24,284c-11.028,0-20-8.973-20-20s8.972-20,20-20c11.028,0,20,8.973,20,20S35.028,284,24,284z"/>
		</g>
		
			<circle opacity="0.4" fill="none" stroke="#FAFAFA" stroke-width="2" stroke-miterlimit="10" enable-background="new    " cx="24" cy="264" r="19"/>
	</g>
	<circle fill="#1CD2D2" cx="24" cy="264" r="9"/>
</g>
</svg>
