<?xml version="1.0" encoding="utf-8"?>
<!-- Generator: Adobe Illustrator 15.0.0, SVG Export Plug-In . SVG Version: 6.00 Build 0)  -->
<!DOCTYPE svg PUBLIC "-//W3C//DTD SVG 1.1//EN" "http://www.w3.org/Graphics/SVG/1.1/DTD/svg11.dtd">
<svg version="1.1" id="Layer_1" xmlns="http://www.w3.org/2000/svg" xmlns:xlink="http://www.w3.org/1999/xlink" x="0px" y="0px"
	 width="48px" height="288px" viewBox="0 0 48 288" enable-background="new 0 0 48 288" xml:space="preserve">
<g>
	<circle fill="#A0A0A0" cx="24" cy="24" r="24"/>
	<path fill="#282828" d="M24,13.111c6.064,0,11,4.934,11,11s-4.936,11-11,11c-6.064,0-11-4.936-11-11
		C13,18.046,17.936,13.111,24,13.111z M24,31.911c4.301,0,7.8-3.499,7.8-7.8c0-4.301-3.499-7.801-7.8-7.801s-7.8,3.5-7.8,7.801
		C16.2,28.412,19.699,31.911,24,31.911z"/>
</g>
<g>
	<circle fill="#A0A0A0" cx="24" cy="72" r="24"/>
	<circle opacity="0.45" fill="#E6E6E6" enable-background="new    " cx="24" cy="72" r="24"/>
	<path opacity="0.8" fill="#282828" enable-background="new    " d="M24,61c6.064,0,11,4.934,11,11c0,6.064-4.936,11-11,11
		c-6.064,0-11-4.934-11-11S17.936,61,24,61z M24,79.8c4.301,0,7.8-3.499,7.8-7.8s-3.499-7.8-7.8-7.8s-7.8,3.5-7.8,7.8
		S19.699,79.8,24,79.8z"/>
</g>
<g opacity="0.4">
	<circle fill="#A0A0A0" cx="24" cy="120" r="24"/>
	<path fill="#282828" d="M24,109c6.064,0,11,4.936,11,11s-4.936,11-11,11c-6.064,0-11-4.934-11-11S17.936,109,24,109z M24,127.8
		c4.301,0,7.8-3.499,7.8-7.8s-3.499-7.8-7.8-7.8s-7.8,3.499-7.8,7.8S19.699,127.8,24,127.8z"/>
</g>
<g>
	<circle fill="#1CD2D2" cx="24" cy="168" r="24"/>
	<rect x="22" y="158.467" fill="#FAFAFA" width="4" height="19.066"/>
</g>
<g>
	<circle fill="#1CD2D2" cx="24" cy="216" r="24"/>
	<circle opacity="0.45" fill="#FAFAFA" enable-background="new    " cx="24" cy="216.121" r="24"/>
	<rect x="22" y="206.469" opacity="0.8" fill="#FAFAFA" enable-background="new    " width="4" height="19.065"/>
</g>
<g>
	<circle opacity="0.4" fill="#1CD2D2" enable-background="new    " cx="24" cy="264" r="24"/>
	<rect x="22" y="254.469" fill="#FAFAFA" width="3.999" height="19.066"/>
</g>
</svg>
