<?xml version="1.0" encoding="utf-8"?>
<!-- Generator: Adobe Illustrator 15.0.0, SVG Export Plug-In . SVG Version: 6.00 Build 0)  -->
<!DOCTYPE svg PUBLIC "-//W3C//DTD SVG 1.1//EN" "http://www.w3.org/Graphics/SVG/1.1/DTD/svg11.dtd">
<svg version="1.1" id="Layer_1" xmlns="http://www.w3.org/2000/svg" xmlns:xlink="http://www.w3.org/1999/xlink" x="0px" y="0px"
	 width="22px" height="22px" viewBox="0 0 22 22" enable-background="new 0 0 22 22" xml:space="preserve">
<path fill="#FFFFFF" d="M12.867,19.915L12.852,1.993L6.635,7.214H2.49c-0.166,0-0.3,0.134-0.3,0.3v6.944c0,0.165,0.134,0.3,0.3,0.3
	h4.237L12.867,19.915z"/>
<path fill="#FFFFFF" d="M16.466,5.83c1.39,1.296,2.25,3.088,2.25,5.07c0,2.042-0.917,3.875-2.38,5.179l0.607,0.606
	c1.603-1.466,2.604-3.516,2.603-5.789c0-2.212-0.944-4.217-2.476-5.674L16.466,5.83L16.466,5.83z"/>
<path fill="#FFFFFF" d="M15.07,7.227c0.992,0.949,1.604,2.243,1.604,3.674c-0.001,1.49-0.67,2.828-1.731,3.785l0.697,0.697
	c1.281-1.123,2.088-2.714,2.088-4.483c0-1.71-0.75-3.257-1.959-4.374L15.07,7.227L15.07,7.227z"/>
<path fill="#FFFFFF" d="M13.771,8.529c0.638,0.619,1.033,1.451,1.033,2.373c0,0.981-0.447,1.862-1.16,2.489l0.617,0.617
	c0.922-0.773,1.51-1.871,1.512-3.106c0-1.174-0.526-2.235-1.373-3.002L13.771,8.529z"/>
</svg>
