<?xml version="1.0" encoding="utf-8"?>
<!-- Generator: Adobe Illustrator 15.0.0, SVG Export Plug-In . SVG Version: 6.00 Build 0)  -->
<!DOCTYPE svg PUBLIC "-//W3C//DTD SVG 1.1//EN" "http://www.w3.org/Graphics/SVG/1.1/DTD/svg11.dtd">
<svg version="1.1" id="Layer_2" xmlns="http://www.w3.org/2000/svg" xmlns:xlink="http://www.w3.org/1999/xlink" x="0px" y="0px"
	 width="60px" height="360px" viewBox="0 0 60 360" enable-background="new 0 0 60 360" xml:space="preserve">
<g>
	<path fill="#A0A0A0" d="M0,29.978C0,13.416,13.433,0,30,0c16.566,0,30,13.416,30,29.978C60,46.538,46.566,60,30,60
		C13.433,60,0,46.538,0,29.978"/>
	<path fill="#282828" d="M30,16.376c7.581,0,13.75,6.152,13.75,13.74c0,7.586-6.169,13.738-13.75,13.738
		c-7.58,0-13.75-6.152-13.75-13.738C16.25,22.528,22.42,16.376,30,16.376z M30,39.876c5.376,0,9.75-4.395,9.75-9.76
		c0-5.367-4.374-9.762-9.75-9.762s-9.75,4.395-9.75,9.762C20.25,35.481,24.624,39.876,30,39.876z"/>
</g>
<g>
	<path fill="#A0A0A0" d="M0,89.977C0,73.415,13.433,60,30,60c16.566,0,30,13.415,30,29.977S46.566,120,30,120
		C13.433,120,0,106.538,0,89.977"/>
	<circle opacity="0.45" fill="#FAFAFA" enable-background="new    " cx="30.001" cy="90" r="30"/>
	<path opacity="0.8" fill="#282828" enable-background="new    " d="M30,76.237c7.581,0,13.75,6.153,13.75,13.739
		c0,7.587-6.169,13.74-13.75,13.74c-7.58,0-13.75-6.153-13.75-13.74C16.25,82.391,22.42,76.237,30,76.237z M30,99.738
		c5.376,0,9.75-4.396,9.75-9.762c0-5.365-4.374-9.761-9.75-9.761s-9.75,4.396-9.75,9.761C20.25,95.343,24.624,99.738,30,99.738z"/>
</g>
<g opacity="0.4">
	<path fill="#A0A0A0" d="M0,149.977C0,133.415,13.433,120,30,120c16.566,0,30,13.415,30,29.977S46.566,180,30,180
		C13.433,180,0,166.538,0,149.977"/>
	<path fill="#282828" d="M30,136.238c7.581,0,13.75,6.152,13.75,13.738c0,7.587-6.17,13.786-13.75,13.786s-13.75-6.199-13.75-13.786
		C16.25,142.391,22.42,136.238,30,136.238z M30,159.738c5.376,0,9.75-4.396,9.75-9.762c0-5.366-4.374-9.761-9.75-9.761
		s-9.75,4.395-9.75,9.761C20.25,155.344,24.624,159.738,30,159.738z"/>
</g>
<g>
	<path fill="#1CD2D2" d="M0,209.977C0,193.416,13.433,180,30,180c16.566,0,30,13.416,30,29.977C60,226.584,46.566,240,30,240
		C13.433,240,0,226.584,0,209.977"/>
	<rect x="27.5" y="198.088" fill="#FAFAFA" width="5" height="23.824"/>
</g>
<g>
	<path fill="#1CD2D2" d="M0,269.977C0,253.416,13.433,240,30,240c16.566,0,30,13.416,30,29.977C60,286.584,46.566,300,30,300
		C13.433,300,0,286.584,0,269.977"/>
	<circle opacity="0.45" fill="#FAFAFA" enable-background="new    " cx="30" cy="270" r="30"/>
	<rect x="27.5" y="258.088" fill="#FAFAFA" width="5" height="23.824"/>
</g>
<g opacity="0.4">
	<path fill="#1CD2D2" d="M0,329.977C0,313.416,13.433,300,30,300c16.566,0,30,13.416,30,29.977C60,346.584,46.566,360,30,360
		C13.433,360,0,346.584,0,329.977"/>
	<rect x="27.5" y="318.088" fill="#FAFAFA" width="4.999" height="23.824"/>
</g>
</svg>
